<?xml version="1.0" encoding="utf-8"?>
<!-- Generator: Adobe Illustrator 16.0.0, SVG Export Plug-In . SVG Version: 6.00 Build 0)  -->
<!DOCTYPE svg PUBLIC "-//W3C//DTD SVG 1.1//EN" "http://www.w3.org/Graphics/SVG/1.1/DTD/svg11.dtd">
<svg version="1.1" id="Layer_1" xmlns="http://www.w3.org/2000/svg" xmlns:xlink="http://www.w3.org/1999/xlink" x="0px" y="0px"
	 width="648px" height="648px" viewBox="0 0 648 648" enable-background="new 0 0 648 648" xml:space="preserve">
<g>
	<g>
		<path fill="#EC1C24" d="M183.131,539.677c0,0,8.59-11.511-17.218-24.985c-23.857-15.065-73.631-60.144-82.103-82.866
			c-3.509,42.992-4.494,55.063-4.494,55.063l-56.932-16.935c0,0,5.866,39.758,63.436,71.197
			c10.369-15.425,30.226-42.871,30.226-42.871L183.131,539.677z"/>
		<path fill="#EC1C24" d="M470.668,540.126c0,0-4.79-19.104,21.423-31.849c23.421-17.757,61.122-53.09,70.29-75.564
			c2.18,43.07,8.403,60.246,8.403,60.246l54.83-31.286c0,0-14.522,41.54-54.759,81.293c-9.89-15.71-34.313-36.97-34.313-36.97
			L470.668,540.126z"/>
		<path fill="#EC1C24" d="M116.699,499.63c0,0,102.751,78.153,221.758,71.345c91.32-2.497,189.285-56.646,197.162-63.822
			c15.382,12.466,42.614,43.487,42.614,43.487s-104.817,100.868-275.556,94.02c-148.996-12.758-221.811-88.117-223.434-90.55
			C93.289,530.86,116.699,499.63,116.699,499.63z"/>
		<g>
			<path fill="#FFFFFF" d="M343.653,591.018c0,0-1.312,0.034-3.274,0.081c-0.983,0.027-2.132,0.056-3.357,0.089
				c-1.23-0.005-2.539-0.005-3.85-0.011c-2.627-0.015-5.203,0.021-7.268-0.079c-0.728-0.022-1.364-0.043-1.889-0.059l0,0
				c0,0-0.015,0-0.018,0.001c-0.921-0.03-1.474-0.048-1.474-0.048l0,0c-1.016-0.032-2.491-0.078-4.288-0.135
				c-1.728-0.049-3.743-0.107-5.901-0.169c-2.161-0.058-4.478-0.109-6.683-0.278c-2.232-0.137-4.464-0.274-6.559-0.403
				c-2.091-0.146-4.039-0.366-5.71-0.512c-1.672-0.156-3.063-0.287-4.038-0.377c-0.09-0.007-0.157-0.015-0.236-0.022h-0.001
				c0,0-0.021-0.002-0.024-0.002c-0.039-0.004-0.077-0.008-0.115-0.01c-0.186-0.019-0.581-0.061-1.128-0.13
				c-0.005-0.001-0.026-0.002-0.026-0.002l0,0c-0.104-0.017-0.191-0.024-0.307-0.04c-1.016-0.127-2.47-0.313-4.212-0.528
				c-3.495-0.379-8.12-1.137-12.752-1.854c-2.312-0.381-4.609-0.845-6.771-1.232c-1.082-0.201-2.125-0.395-3.116-0.576
				c-0.984-0.215-1.916-0.414-2.774-0.599c-1.732-0.373-3.172-0.681-4.175-0.896l-0.002-0.001c0,0-0.517-0.11-1.397-0.297
				c-0.094-0.022-0.158-0.035-0.158-0.035l0,0c-0.104-0.024-0.191-0.043-0.306-0.065c-1.176-0.288-2.859-0.697-4.877-1.188
				c-2.02-0.481-4.375-1.056-6.876-1.76c-2.503-0.69-5.188-1.373-7.833-2.196c-5.321-1.543-10.583-3.276-14.517-4.606
				c-3.004-1.062-5.228-1.845-6.107-2.154c-0.157-0.056-0.319-0.113-0.507-0.182c-0.96-0.361-2.331-0.879-3.977-1.499
				c-1.646-0.613-3.564-1.341-5.596-2.178c-2.034-0.825-4.222-1.669-6.366-2.608c-4.322-1.811-8.583-3.746-11.769-5.215
				c-2.414-1.146-4.208-1.998-4.926-2.34c-0.605-0.296-1.174-0.574-1.174-0.574c-0.146-0.827-0.124-1.708,0.063-2.639
				c0.083-0.446,0.331-1.293,0.748-2.543l-1.316-3.242c-1.456,2.605-3.262,6.32-5.393,11.153c-0.213-4.036-1.781-6.858-4.827-8.462
				c-0.703-0.383-1.822-0.887-3.315-1.506c-0.008-0.023-0.015-0.054-0.015-0.054s-8.108-4.396-15.794-9.266
				c-3.855-2.416-7.612-4.925-10.311-6.826c-2.708-1.9-4.343-3.173-4.121-3.001c-0.198,0.396-0.168,3.011,0.12,7.676
				c0.144,2.728,1.163,5.26,3,7.555c1.851,2.283,2.922,3.77,3.179,4.437c0.686,1.52,0.442,3.284-0.747,5.287
				c-0.474-0.47-1.026-0.903-1.667-1.304c-1.916-1.21-3.868-1.756-5.893-1.64c-2.234,0.145-4.022,1.083-5.333,2.837
				c-1.163,1.561-1.538,3.234-1.1,5.046c0.431,1.817,1.56,3.278,3.335,4.432c0.847,0.538,2.154,0.924,3.902,1.16
				c1.746,0.239,3.099,0.188,4.035-0.087c2.77,3.617,3.241,8.688,1.437,15.32l1.139,4.325l20.069-32.605
				c0,0,0.408,0.229,1.022,0.576c0.62,0.337,1.445,0.784,2.271,1.231c1.653,0.891,3.308,1.783,3.308,1.783s-0.021-0.076-0.051-0.183
				c1.448,0.824,2.482,1.914,3.047,3.331c0.671,1.692,0.534,3.408-0.457,5.182l-13.402,23.998l2.359,7.162l18.606-34.517
				c0,0,1.734,0.828,3.465,1.657c0.61,0.287,1.216,0.574,1.751,0.827v0.004c0,0,0.845,0.398,1.688,0.799
				c0.852,0.382,1.704,0.765,1.704,0.765l-9.107,18.109c0,0,0.771,1.996,1.542,3.99c0.396,1.002,0.792,2.003,1.089,2.754
				c0.306,0.743,0.511,1.239,0.511,1.239c2.806-2.497,5.791-4.355,8.944-5.576c3.157-1.225,6.518-1.893,10.047-1.889
				c-1.709,2.424-3.067,4.76-4.047,7.013c-1.359,3.129-2.713,8.217-3.886,15.231l3.489,3.476c1.134-5.743,2.192-9.688,3.1-11.867
				c1.969-4.714,5.926-9.371,11.617-14.146c0,0-0.314-0.464-0.785-1.16c-0.464-0.703-1.08-1.641-1.698-2.577
				c-1.211-1.863-2.424-3.728-2.424-3.728c-2.796,0.023-5.958,0.343-9.583,1.079c-3.134,0.735-6.31,1.401-9.56,2.065l5.695-11.795
				c0,0,6.62,2.884,13.346,5.523c6.739,2.613,13.577,4.965,13.577,4.965l0-0.003c0.49,0.171,1.079,0.376,1.751,0.611
				c1.953,0.637,4.559,1.483,7.162,2.332c2.625,0.788,5.249,1.575,7.216,2.167c0.983,0.296,1.805,0.542,2.385,0.689
				c0.579,0.157,0.909,0.247,0.909,0.247l-0.466,1.516c-3.916,0.1-7.836,0.438-11.844,1.198c-3.972,0.653-8.05,1.767-12.169,3.071
				c0,0,0.787,2.111,1.622,4.182c0.85,2.076,1.699,4.153,1.699,4.153c4.12,1.886,7.292,4.37,9.526,7.651
				c2.222,3.31,3.555,7.269,3.93,12.08l2.169,3.348l8.296-28.545c2.261,0.492,4.148,1.577,5.655,3.463
				c1.508,1.873,2.182,3.898,1.995,6.074c-0.792-0.833-1.732-1.385-2.828-1.651c-0.795-0.192-1.679-0.259-2.652-0.2
				c-1.991,0.85-3.217,2.027-3.649,3.544c-0.383,1.344-0.132,2.643,0.772,3.896c0.903,1.257,2.106,2.068,3.595,2.431
				c2.002,0.475,3.846,0.199,5.547-0.977c1.693-1.153,2.752-2.665,3.204-4.529c0.885-3.646,0.322-7.252-1.528-10.945
				c-1.935-3.997-4.68-6.34-8.302-7.326l0.322-1.107c0,0,0.269,0.075,0.744,0.201c0.472,0.129,1.147,0.32,1.964,0.511
				c1.634,0.397,3.811,0.927,5.989,1.459c2.17,0.559,4.374,0.976,6.014,1.344c1.645,0.352,2.739,0.588,2.739,0.588l0,0l2.228,0.477
				l-4.335,19.652c0,0,1.253,1.746,2.508,3.496c1.284,1.754,2.566,3.508,2.566,3.508c4.202-6.041,9.729-9.944,16.572-11.572
				c-1.042,2.768-1.762,5.335-2.139,7.75c-0.487,3.133-0.521,7.893,0.017,14.24c-2.23-1.927-5.357-3.414-9.454-4.374
				c-3.772-0.756-7.484-1.735-11.221-2.597c-3.305-1.324-4.548-3.649-3.806-6.809c0.207-0.886,0.646-1.601,1.31-2.144l-2.291-3.287
				c-2.004,3.198-3.218,5.532-3.585,7.021c-1.039,4.188,0.31,7.521,4.135,10.005c2.593,1.696,6.767,2.987,12.439,4.023
				c5.705,0.894,9.051,1.482,10.04,1.778c0.995,0.272,1.887,0.938,2.687,2.004c1.347,1.953,3.093,3.835,5.253,5.646l4.142-32.425
				c0.724-1.149,1.495-2.313,2.352-3.503c0,0-1.68-1.529-3.361-3.061c-1.649-1.525-3.297-3.052-3.297-3.052
				c-2.706,0.714-5.677,1.716-9.003,3.248c-1.443,0.719-2.886,1.438-4.335,2.158c-1.469,0.676-2.943,1.352-4.42,2.029l2.572-12.747
				c0,0,1.776,0.352,4.452,0.808c2.685,0.401,6.253,1.006,9.839,1.501c3.593,0.427,7.178,0.935,9.88,1.194
				c1.405,0.134,2.559,0.24,3.35,0.314c0.538,0.051,1.743,0.163,3.346,0.315c2.19,0.247,5.128,0.357,8.06,0.559
				c1.469,0.089,2.936,0.178,4.314,0.26c1.404,0.04,2.715,0.075,3.84,0.109c2.247,0.065,3.745,0.107,3.745,0.107l-0.044,1.22
				c-3.793,1.084-7.667,2.623-11.523,4.218c-3.883,1.657-7.875,3.665-11.998,5.799c0,0,1.225,1.968,2.45,3.939
				c1.237,1.988,2.519,3.912,2.519,3.912c4.153,0.532,7.633,1.863,10.426,3.848c2.159,1.546,4.298,3.881,6.441,7.004
				c1.886,2.971,3.83,5.921,5.805,8.854l1.103-38.638c0,0,2.01,0.063,4.02,0.126c0.967,0.031,1.926,0.062,2.669,0.085l0,0h0.002
				c0.031,0.002,0.065,0.002,0.095,0.003c0.739,0.004,1.231,0.005,1.231,0.005l-0.004-0.004l7.87,0.025
				c-1.641,2.243-2.805,3.984-3.453,5.226c-0.897,1.911-1.364,3.941-1.372,6.091c-0.006,1.626,0.449,3.995,1.417,7.104
				c0.967,3.112,1.477,5.479,1.486,7.104c0.025,3.968-1.61,6.452-4.959,7.444c-1.229,0.331-2.159,0.661-2.781,0.994
				c-0.596,0.315-0.897,0.642-0.905,0.976c-0.015,0.671,0.278,1.229,0.875,1.679c0.628,0.43,1.33,0.648,2.104,0.651
				c3.044,0.004,5.993-1.375,8.734-4.228c2.582-2.739,3.785-5.45,3.713-8.125c-0.055-2.151-0.572-5.332-1.494-9.54
				c-0.92-4.209-1.376-7.388-1.417-9.541c-0.068-4.112,1.879-6.218,5.836-6.314c0,0,1.104,0.058,2.209,0.058
				c1.106,0.013,2.211,0.025,2.211,0.025s-1.38-1.182-2.757-2.366C344.998,592.258,343.653,591.018,343.653,591.018z
				 M142.169,568.818c-0.462-2.854-0.917-5.213-1.371-7.122c2.184-2.756,3.219-5.871,3.189-9.288
				c0.026-2.527-0.607-5.799-1.794-9.781c0,0,2.943,1.894,5.953,3.715c1.501,0.916,3.011,1.822,4.158,2.481
				c1.141,0.669,1.902,1.113,1.902,1.113L142.169,568.818z M228.263,605.974c-1.624-4.55-4.351-8.619-8.243-12.045
				c4.892-1.336,9.086-2.113,12.718-2.474L228.263,605.974z M302.874,609.785c4.583-2.291,8.767-4.258,12.677-5.516l-0.569,15.479
				C312.005,615.66,307.98,612.515,302.874,609.785z"/>
			<path fill="#FFFFFF" d="M442.192,606.195c-1.312-0.53-2.618-0.595-3.933-0.194c-1.27,0.388-2.206,1.139-2.824,2.254
				c-0.623,1.097-0.758,2.22-0.393,3.362c0.376,1.188,1.222,2.078,2.546,2.645c1.318,0.554,2.661,0.621,4.017,0.208
				c1.301-0.397,2.263-1.168,2.87-2.309c0.606-1.134,0.704-2.286,0.304-3.42C444.364,607.564,443.5,606.73,442.192,606.195z"/>
			<path fill="#FFFFFF" d="M486.93,569.96c-0.339-1.584-0.924-3.091-1.766-4.52c-1.232-2.081-2.582-3.506-4.028-4.282
				c0,0,0.486-0.252,1.214-0.631c0.718-0.396,1.669-0.922,2.621-1.445c1.926-1.034,3.773-2.142,3.773-2.142
				s-1.766-0.424-3.525-0.894c-1.752-0.487-3.51-0.969-3.51-0.969s-2.203,1.24-5.623,2.984c-1.685,0.903-3.742,1.848-5.898,2.921
				c-2.185,1.032-4.533,2.115-6.899,3.17c-4.752,2.082-9.567,4.065-13.238,5.447c-1.832,0.694-3.359,1.272-4.427,1.677
				c-0.078,0.027-0.135,0.047-0.205,0.074l0,0c0,0-0.119,0.039-0.309,0.107c-0.751,0.265-1.187,0.419-1.187,0.419l0,0
				c-0.903,0.322-2.181,0.774-3.712,1.317c-3.147,1.061-7.34,2.483-11.597,3.743c-2.112,0.665-4.245,1.277-6.256,1.827
				c-2.006,0.556-3.868,1.11-5.488,1.504c-1.801,0.462-3.246,0.831-4.19,1.072l0,0c0,0-0.553,0.141-1.519,0.39
				c-0.972,0.226-2.358,0.548-4.022,0.936c-3.32,0.806-7.788,1.714-12.26,2.608c-2.243,0.408-4.487,0.816-6.589,1.2
				c-2.112,0.337-4.083,0.651-5.771,0.92c-1.599,0.265-2.935,0.459-3.916,0.593l-0.002-0.003l-1.709,0.225
				c-0.002-0.001-0.016,0.001-0.016,0.001l0,0l-1.866,0.246l-1.514-2.479c-0.067-2.211,1.164-4.402,3.626-6.56
				c2.253-1.991,4.462-3.229,6.715-3.568c1.77-0.257,3.558-0.335,5.394-0.117c1.835,0.201,3.723,0.718,5.656,1.414
				c0.772,0.204,4.205,1.901,10.548,4.731l-2.655-4.182c-8.511-5.534-15.925-7.695-23.013-6.66c-2.97,0.505-5.755,2.07-8.438,4.945
				c-2.807,2.986-4.102,5.914-3.73,9.024c0.153,1.282,1.177,2.617,3.106,4.002c0,0-2.304,0.242-4.608,0.485
				c-1.155,0.122-2.305,0.244-3.171,0.337c-0.863,0.069-1.439,0.114-1.439,0.114s1.374,1.17,2.768,2.27
				c1.405,1.115,2.811,2.228,2.811,2.228l4.938-0.523l4.218,32.165l6.528,4.067l-5.492-36.923c0,0,1.808-0.243,3.611-0.487
				c0.647-0.102,1.294-0.2,1.858-0.291c0.033-0.005,6.112-0.903,12.145-2.064c3.037-0.535,6.039-1.225,8.308-1.67
				c1.133-0.227,2.069-0.441,2.726-0.598c0.656-0.153,1.031-0.238,1.031-0.238l3.75,14.997c-2.555-2.589-5.054-4.45-7.513-5.538
				c-2.462-1.094-4.87-1.343-7.312-0.927c-2.659,0.477-4.758,1.772-6.354,3.804c-1.603,2.021-2.207,4.284-1.77,6.783
				c0.825,4.792,3.994,6.848,9.433,5.821c4.051-0.716,5.659-2.942,4.857-6.551c-0.3-1.356-1.258-2.694-2.846-4.037
				c3.561-0.546,7.283,1.387,11.319,5.632c3.532,3.711,5.838,7.359,6.771,10.979c0.119,0.467,0.347,1.347,0.682,2.646l4.078,2.892
				l-10.083-37.662l5.722-1.458c0.313,0.183,0.612,0.358,0.887,0.517c1.935,0.864,4.274,1.095,7.039,0.827
				c2.768-0.255,4.829-0.179,6.215,0.352c-2.448,3.351-5.047,7.205-7.795,11.828c0,0,1.894,1.263,3.787,2.527
				c1.926,1.254,3.848,2.508,3.848,2.508c4.492-1.066,8.146-1.288,11.063-0.466c1.903,0.483,4.3,1.769,7.242,3.834
				c3.662,2.61,6.703,4.316,9.107,5.312l-14.032-35.658c0,0,1.729-0.598,3.438-1.234c1.704-0.648,3.413-1.297,3.413-1.297
				l-0.007-0.004c0.69-0.263,1.678-0.641,2.862-1.094c2.333-0.962,5.477-2.18,8.543-3.544c3.101-1.302,6.115-2.741,8.401-3.78
				c2.249-1.096,3.748-1.824,3.748-1.824c1.514-0.731,3.418,0.956,5.733,5.086c0.149,0.268,0.262,0.505,0.36,0.737
				c-0.188,0.081-0.378,0.164-0.567,0.263c-0.515,0.25-0.999,0.541-1.462,0.855c-0.712-0.281-1.504-0.63-2.391-1.068
				c-1.622-0.824-2.979-1.25-4.109-1.307c-1.79-0.139-3.858,0.349-6.258,1.437c-2.11,0.909-3.686,2.196-4.755,3.866
				c-1.226,1.805-1.405,3.716-0.495,5.739c0.652,1.449,1.782,2.369,3.408,2.748c1.425,0.313,2.946,0.075,4.586-0.624
				c1.214-0.528,2.136-1.282,2.737-2.297c0.601-1.02,0.635-2.044,0.116-3.08c-0.409-0.819-1.055-1.479-1.914-1.985l0.272-0.126
				c1.489-0.791,3.201-0.86,5.168-0.228c0.13,0.061,0.264,0.112,0.392,0.171c-0.488,0.693-0.934,1.441-1.34,2.257
				c-1.46,3.112-1.622,5.948-0.385,8.46c0.81,1.646,2.005,2.808,3.61,3.477c1.601,0.671,3.328,0.581,5.162-0.265
				c1.396-0.666,2.439-1.683,3.131-3.012c0.691-1.333,0.702-2.587,0.047-3.771c-0.49-0.89-1.272-1.526-2.343-1.921
				c-1.063-0.392-2.069-0.33-3.018,0.187l-0.624,0.306c-0.182-1.435,0.118-2.644,0.868-3.655c1.519,0.528,2.796,0.586,3.766,0.089
				c0.318-0.165,0.595-0.377,0.839-0.612c0.169,0.247,0.341,0.515,0.515,0.825l6.268,11.104c-2.392-0.475-4.904-0.148-7.551,1.153
				c-0.716,0.361-1.774,0.899-3.161,1.643c-1.388,0.744-2.447,1.283-3.176,1.617c-2.339,1.052-4.215,1.394-5.584,1.103
				c-1.56-0.317-2.805-1.499-3.752-3.546c-0.484-1.042-0.823-2.517-1.027-4.409c0,0-0.893-0.185-1.783-0.368
				c-0.894-0.2-1.784-0.399-1.784-0.399c-0.398,3.071-0.074,5.851,1.021,8.316c1.313,2.949,3.479,4.956,6.562,5.989
				c3.072,1.005,6.322,0.77,9.668-0.726c0.998-0.458,2.373-1.287,4.117-2.488c1.742-1.201,3.086-2.097,4.073-2.568
				c2.807-1.342,5.767-1.063,9.009,0.961c0,0,0.993,0.158,1.988,0.316c1,0.164,2,0.285,2,0.285l-11.696-19.653
				C490.184,572.466,488.603,570.813,486.93,569.96z M448.806,601.57c-4.256-2.639-8.983-4.013-14.28-4.294
				c1.259-2.361,2.356-4.421,3.296-6.182c0.919-1.773,1.686-3.245,2.293-4.417c-4.375-2.525-7.574-4.261-9.688-5.02
				c0,0,0.613-0.188,1.535-0.47c0.918-0.286,2.156-0.637,3.365-1.052c2.437-0.803,4.87-1.604,4.87-1.604L448.806,601.57z"/>
			<path fill="#FFFFFF" d="M509.126,542.342c0,0,0.3-0.272,0.743-0.684c0.463-0.414,0.933-0.959,1.475-1.499
				c0.571-0.548,0.943-1.056,1.279-1.441c0.326-0.381,0.544-0.635,0.544-0.635s-1.658-0.066-3.166-0.259
				c-0.802-0.09-1.604-0.181-2.209-0.246c-0.593-0.081-0.989-0.137-0.989-0.137s-0.161,0.174-0.325,0.348
				c-0.153,0.172-0.373,0.355-0.373,0.355c-1.022,0.018-2.518-0.318-4.48-1.068c-2.444-0.9-3.964-1.502-4.681-1.708l4.321,4.88
				c2.382,2.652,4.69,5.018,6.971,7.053c-5.686-2.445-9.708-2.881-12.631-0.849c-1.419,0.93-2.465,2.042-3.285,3.276
				c-0.817,1.24-1.324,2.649-1.527,4.235c-0.447,3.144,0.252,6.287,2.249,9.385c1.623,2.529,3.936,4.196,7.021,4.935
				c3.046,0.683,6.01,0.212,8.665-1.603c1.628-1.06,2.747-2.529,3.356-4.282c0.614-1.74,0.318-3.301-0.803-4.656
				c-0.873-1.051-2.036-1.646-3.502-1.863c-1.467-0.209-2.733,0.073-3.841,0.861c-2.317,1.544-2.755,3.325-1.317,5.342
				c0.255,0.355,0.523,0.731,0.807,1.128c-1.501,0.344-3.106-0.739-4.797-3.163c-0.946-1.357-1.267-2.887-1.034-4.594
				c0.218-1.722,0.946-2.994,2.223-3.845c1.977-1.411,4.323-1.688,7.017-1.007c2.723,0.697,5.028,1.989,6.778,3.946l13.691,15.366
				c0,0,2.262-0.072,4.588-0.216c1.157-0.05,2.345-0.188,3.25-0.316c0.906-0.122,1.51-0.207,1.51-0.207L509.126,542.342z"/>
		</g>
	</g>
	<g>
		<g>
			<g>
				<path fill="#008F4C" d="M373.256,83.093c-12.737-3.956-33.208-5.613-45.691-28.911c-12.621,23.222-33.101,24.758-45.862,28.638
					c-20.885,6.353-49.076,0.573-35.93,44.73l81.57,0.728l81.575-0.239C422.327,83.96,394.103,89.571,373.256,83.093z"/>
				<path fill="#008F4C" d="M528.598,201.221c-4.963-12.379-16.588-29.311-6.382-53.691c-25.979,4.852-40.091-10.075-51.147-17.529
					c-18.105-12.201-31.397-37.723-57.375,0.331l50.884,63.757l51.633,63.153C558.877,239.849,536.718,221.484,528.598,201.221z"/>
				<path fill="#008F4C" d="M534.289,397.659c6.557-11.616,12.493-31.276,37.901-38.562c-20.039-17.237-17.216-37.582-18.318-50.872
					c-1.803-21.756,9.794-48.094-36.143-44.558l-17.919,79.58l-16.979,79.787C523.091,445.444,523.559,416.67,534.289,397.659z"/>
				<path fill="#008F4C" d="M385.048,524.854c13.155-2.18,32.193-9.887,53.803,5.335c0.861-26.418,18.472-36.979,28.137-46.17
					c15.815-15.051,43.602-22.535,12.039-56.1l-73.224,35.95l-72.795,36.815C340.803,546.099,363.508,528.419,385.048,524.854z"/>
				<path fill="#008F4C" d="M187.154,484.421c9.689,9.166,27.333,19.677,28.269,46.087c21.566-15.28,40.626-7.631,53.791-5.489
					c21.547,3.503,44.305,21.117,51.967-24.316l-72.899-36.604l-73.327-35.74C143.489,462.013,171.298,469.415,187.154,484.421z"/>
				<path fill="#008F4C" d="M99.759,308.327c-1.096,13.293,1.733,33.632-18.296,50.88c25.411,7.275,31.358,26.936,37.917,38.547
					c10.739,19.005,11.221,47.778,51.469,25.353l-17.011-79.779l-17.954-79.574C89.942,260.239,101.551,286.571,99.759,308.327z"/>
				<path fill="#008F4C" d="M181.075,131.233c-10.995,7.549-24.976,22.594-50.998,17.963c10.413,24.294-1.067,41.323-5.924,53.745
					c-7.95,20.331-29.949,38.884,12.863,55.914l51.094-63.589l50.339-64.189C212.149,93.244,199.071,118.879,181.075,131.233z"/>
			</g>
			<path fill="#EC1C24" d="M542.141,326.915c-11.903,118.921-117.953,205.68-236.872,193.78
				c-118.921-11.897-205.681-117.947-193.78-236.872c11.899-118.92,117.95-205.678,236.871-193.779
				C467.282,101.943,554.038,207.995,542.141,326.915z"/>
			<g>
				<g>
					<g>
						<path fill="#EC1C24" d="M58.385,348.089c-0.209-1.483-0.437-2.561-0.682-3.23c-0.541-1.519-1.18-2.782-1.918-3.795
							c-0.735-1.012-1.664-1.876-2.701-2.606c-1.053-0.727-2.349-1.276-3.888-1.649c-1.539-0.371-3.19-0.468-4.951-0.275
							c-2.548,0.278-4.773,1.086-6.672,2.46c-0.949,0.687-1.755,1.498-2.419,2.436c-0.644,0.935-1.123,1.993-1.464,3.176
							c-0.552,1.934-0.613,4.417-0.184,7.428c0,0,0.093,0.706,0.292,1.756c0.188,1.052,0.439,2.453,0.69,3.855
							c0.504,2.804,1.008,5.607,1.008,5.607l0.674-0.134l-0.149-0.829c-0.126-0.701-0.107-1.279,0.056-1.736
							c0.164-0.456,0.392-0.779,0.685-0.974c0.292-0.194,1.071-0.408,2.338-0.644l16.291-3.025c1.278-0.237,2.055-0.328,2.329-0.274
							c0.42,0.098,0.774,0.304,1.063,0.617c0.289,0.313,0.493,0.803,0.612,1.469l0.136,0.763l0.674-0.134
							c0,0-0.459-2.564-0.918-5.129c-0.23-1.281-0.461-2.563-0.634-3.524C58.469,348.735,58.385,348.089,58.385,348.089z
							 M35.079,348.971c0.36-1.336,1.232-2.507,2.617-3.504c1.773-1.263,4.263-2.093,7.467-2.517
							c3.978-0.525,7.012-0.211,9.096,0.899c1.542,0.814,2.445,2.161,2.713,4.062c0.083,0.581,0.048,1.04-0.073,1.375
							c-0.083,0.235-0.233,0.418-0.449,0.546c-0.215,0.13-0.837,0.278-1.863,0.447l-19.393,3.187
							C34.814,351.421,34.841,349.91,35.079,348.971z"/>
						<path fill="#EC1C24" d="M31.859,323.164c-0.126-1.913-0.115-3.223,0.105-3.93c0.334-1.21,0.887-2.154,1.66-2.832
							c0.771-0.678,2.063-1.223,3.871-1.634l-0.021-0.694l-7.446,0.215c0,0,0.041,1.331,0.102,3.326
							c0.025,1.997,0.21,4.653,0.395,7.31c0.196,2.655,0.321,5.316,0.534,7.302c0.207,1.987,0.345,3.312,0.345,3.312l0.684-0.069
							L32,334.631c-0.085-0.82,0.021-1.481,0.317-1.985c0.199-0.355,0.508-0.614,0.927-0.776c0.252-0.085,0.947-0.178,2.082-0.278
							l16.504-1.467c1.258-0.111,2.042-0.117,2.352-0.018c0.436,0.123,0.756,0.325,0.96,0.605c0.302,0.388,0.488,0.918,0.559,1.591
							l0.081,0.771l0.684-0.069c0,0-0.131-1.251-0.328-3.127c-0.195-1.876-0.312-4.391-0.498-6.898
							c-0.085-1.255-0.17-2.51-0.25-3.686c-0.058-1.177-0.074-2.278-0.107-3.221c-0.057-1.886-0.095-3.143-0.095-3.143l-8.036-0.866
							l0.02,0.653c2.246,0.535,3.935,1.445,5.063,2.73c1.155,1.287,1.667,3.015,1.851,5.193l0.094,1.395
							c0.045,0.666-0.021,1.154-0.198,1.466c-0.178,0.312-0.417,0.533-0.719,0.663c-0.302,0.13-1.144,0.243-2.528,0.337
							l-7.079,0.482c-0.078-1.157,0.021-2.05,0.294-2.676s0.853-1.192,1.738-1.696c0.884-0.504,2.039-0.86,3.464-1.072
							c0,0-0.029-0.667-0.029-0.667l-13.175,0.624c0,0,0.031,0.698,0.031,0.698c1.968,0.099,3.476,0.474,4.524,1.117
							c1.049,0.645,1.625,1.735,1.729,3.282l0.033,0.485l-10.23,0.696L31.859,323.164z"/>
						<path fill="#EC1C24" d="M43.451,294.717c-0.345-1.734-1.078-3.123-2.197-4.171c-1.118-1.048-2.494-1.628-4.126-1.723
							c-1.928-0.112-3.57,0.573-4.926,2.085c-1.348,1.51-2.134,4.105-2.255,7.755c0,0-0.02,2.771-0.04,5.543
							c-0.009,1.386-0.018,2.771-0.024,3.811c-0.016,1.04,0.009,1.732,0.008,1.732l0.688-0.009c-0.03-1.16,0.107-1.954,0.312-2.379
							c0.213-0.424,0.497-0.721,0.851-0.89c0.354-0.168,1.212-0.253,2.575-0.255l16.347-0.028c1.362-0.002,2.216,0.074,2.562,0.229
							c0.345,0.155,0.626,0.425,0.839,0.809c0.222,0.384,0.298,1.115,0.327,2.193l0.688-0.01c0,0-0.005-0.185-0.015-0.508
							c0.002-0.324,0.006-0.786,0.01-1.341c0.008-1.109,0.018-2.588,0.028-4.068c0.01-1.479,0.019-2.958,0.026-4.068
							c-0.004-0.555,0.02-1.017,0.035-1.34c0.015-0.323,0.023-0.508,0.023-0.508l-0.688-0.021c-0.059,1.056-0.167,1.778-0.375,2.171
							c-0.213,0.391-0.496,0.663-0.851,0.811c-0.354,0.149-1.211,0.212-2.573,0.188l-6.983-0.125
							C43.697,297.844,43.723,295.887,43.451,294.717z M31.39,299.613c-0.009-1.631,0.516-2.844,1.409-3.633
							c0.902-0.789,2.287-1.143,4.156-1.073c1.88,0.07,3.252,0.522,4.115,1.345c0.873,0.825,1.231,1.961,1.242,3.423
							c-0.001,0.204-0.015,0.503-0.043,0.898l-10.884-0.195L31.39,299.613z"/>
						<path fill="#EC1C24" d="M52.752,275.17c0.853-0.233,1.337-0.353,1.45-0.363c0.243-0.043,0.474-0.052,0.696-0.027
							c0.369,0.042,0.636,0.199,0.802,0.472c0.225,0.396,0.28,1.042,0.166,1.942l-0.058,0.461l0.684,0.07l1.407-11.185l-0.681-0.098
							c-0.149,0.698-0.438,1.214-0.868,1.549c-0.566,0.446-1.87,0.937-3.912,1.494c0,0-5.387,1.447-10.794,3.066
							c-2.704,0.805-5.411,1.644-7.442,2.289c-2.028,0.654-3.38,1.09-3.38,1.09l-0.029,0.356c0,0,4.814,2.77,9.644,5.372
							c4.829,2.619,9.67,5.07,9.67,5.07c1.854,0.934,3.047,1.679,3.646,2.258c0.589,0.579,0.933,1.289,1.032,2.133l0.687,0.037
							c0,0,0.021-0.484,0.053-1.209c0.024-0.726,0.072-1.693,0.165-2.658c0.158-1.931,0.315-3.862,0.315-3.862l-0.686-0.056
							c-0.197,1.205-0.407,1.956-0.63,2.251c-0.377,0.503-0.917,0.731-1.622,0.682c-0.531-0.037-1.192-0.246-1.98-0.629
							l-2.363-1.178c0,0,0.171-2.104,0.342-4.208c0.09-1.052,0.162-2.105,0.244-2.893c0.099-0.785,0.165-1.309,0.165-1.309
							L52.752,275.17z M47.402,283.775c0,0-2.086-1.101-4.173-2.201c-2.084-1.128-4.168-2.256-4.168-2.256s2.233-0.709,4.467-1.419
							c2.216-0.699,4.503-1.36,4.503-1.36s-0.066,0.449-0.133,1.127c-0.055,0.679-0.128,1.583-0.202,2.489
							C47.549,281.965,47.402,283.775,47.402,283.775z"/>
						<path fill="#EC1C24" d="M48.476,253.331c0,0,3.164-1.405,6.312-2.725c1.553-0.667,3.196-1.297,4.404-1.767
							c1.212-0.464,2.02-0.774,2.02-0.774l1.645-7.146l-0.668-0.163c-0.175,0.596-0.5,1.078-0.981,1.449
							c-0.333,0.241-1.12,0.592-2.361,1.068c0,0-2.4,0.923-4.8,1.847c-2.409,0.966-4.819,1.933-4.819,1.933
							c-0.043-1.521-0.348-2.77-0.911-3.745c-0.894-1.528-2.243-2.511-4.054-2.926c-1.485-0.34-2.878-0.206-4.185,0.415
							c-1.305,0.622-2.324,1.585-3.054,2.886c-0.354,0.651-0.748,1.508-1.056,2.593c-0.301,1.086-0.586,2.388-0.856,3.902
							c0,0-0.516,2.909-1.033,5.818c-0.257,1.455-0.514,2.909-0.707,4c-0.105,0.544-0.162,1.002-0.2,1.323
							c-0.041,0.32-0.064,0.503-0.064,0.503l0.68,0.101c0.128-1.154,0.388-1.915,0.669-2.3c0.281-0.385,0.611-0.632,0.989-0.742
							c0.378-0.11,1.24-0.058,2.585,0.157l16.143,2.575c1.345,0.215,2.175,0.426,2.49,0.634c0.315,0.207,0.546,0.518,0.692,0.93
							c0.147,0.413,0.108,1.146-0.008,2.221l0.68,0.101c0,0,0.023-0.185,0.063-0.509c0.032-0.325,0.102-0.785,0.208-1.334
							c0.196-1.101,0.458-2.567,0.719-4.035c0.52-2.935,1.041-5.869,1.041-5.869l-0.675-0.13c-0.186,1.051-0.416,1.75-0.691,2.096
							c-0.275,0.347-0.6,0.566-0.975,0.656c-0.374,0.091-1.231,0.016-2.572-0.226l-6.947-1.251L48.476,253.331z M36.389,250.742
							c0.351-1.974,1.056-3.317,2.112-4.02c1.059-0.703,2.576-0.843,4.447-0.456c1.297,0.269,2.295,0.721,2.996,1.35
							c0.705,0.631,1.163,1.389,1.323,2.265c0.165,0.877,0.103,2.134-0.188,3.774l-0.179,1.009l-10.859-1.956L36.389,250.742z"/>
						<path fill="#EC1C24" d="M38.31,235.269l6.626,1.602l0.156-0.678c-1.741-0.715-2.978-1.716-3.708-3.013
							c-0.26-0.462-0.414-1.018-0.44-1.664c-0.006-0.64,0.108-1.371,0.34-2.192l0.499-1.761l18.751,5.096
							c1.218,0.331,1.954,0.597,2.207,0.797c0.359,0.276,0.582,0.58,0.667,0.913c0.138,0.465,0.114,1.023-0.071,1.673l-0.212,0.745
							l0.666,0.172l3.328-11.727l-0.657-0.202l-0.21,0.745c-0.182,0.641-0.439,1.111-0.776,1.413
							c-0.336,0.302-0.676,0.471-1.021,0.507c-0.345,0.037-1.135-0.126-2.371-0.489l-18.642-5.481l0.516-1.815
							c0.324-1.138,0.657-1.902,1-2.289c0.64-0.687,1.39-1.146,2.195-1.397c0.81-0.25,2.026-0.319,3.648-0.207l0.211-0.625
							l-6.483-2.108c0,0-0.458,1.354-1.144,3.384c-0.588,2.061-1.374,4.808-2.159,7.555c-0.766,2.752-1.587,5.491-2.11,7.568
							C38.631,233.877,38.31,235.269,38.31,235.269z"/>
						<path fill="#EC1C24" d="M48.63,201.417c0,0-0.238,0.605-0.595,1.512c-0.313,0.923-0.731,2.154-1.149,3.385
							c-0.834,2.462-1.669,4.924-1.669,4.924l0.652,0.217l0.258-0.763c0.229-0.675,0.525-1.174,0.89-1.498
							c0.365-0.322,0.718-0.497,1.06-0.523c0.342-0.025,1.117,0.17,2.322,0.588l15.058,5.222c1.064,0.37,1.658,0.588,1.778,0.654
							c0.51,0.311,0.879,0.628,1.11,0.951c0.23,0.324,0.365,0.729,0.402,1.213c0.039,0.487-0.031,0.972-0.208,1.457l-0.078,0.228
							l0.652,0.217l2.552-7.545l-0.646-0.237c-0.341,1.011-0.775,1.686-1.303,2.029c-0.527,0.342-1.107,0.483-1.739,0.419
							c-0.288-0.04-1.016-0.265-2.184-0.677l-16.732-5.894c0,0,1.54-0.101,3.849-0.253c2.315-0.138,5.343-0.317,8.475-0.413
							c6.219-0.222,12.361-0.244,12.361-0.244l0.151-0.383c0,0-4.532-4.164-8.985-8.523c-2.227-2.172-4.448-4.389-6.088-6.061
							c-1.608-1.67-2.68-2.783-2.68-2.783l17.145,7.389c1.16,0.5,1.85,0.866,2.071,1.1c0.315,0.324,0.493,0.65,0.534,0.979
							c0.058,0.476-0.032,1.035-0.278,1.677l-0.278,0.705l0.635,0.265c0,0,0.281-0.706,0.703-1.764
							c0.472-1.037,1.101-2.42,1.729-3.803c1.255-2.767,2.51-5.534,2.51-5.534l-0.622-0.293l-0.312,0.689
							c-0.271,0.596-0.595,1.021-0.976,1.275c-0.38,0.255-0.744,0.374-1.089,0.355c-0.346-0.018-1.104-0.294-2.276-0.828
							l-15.111-6.888c-1.138-0.519-1.815-0.901-2.028-1.15c-0.295-0.339-0.457-0.688-0.485-1.044
							c-0.051-0.518,0.079-1.118,0.389-1.8l0.341-0.75l-0.622-0.293l-4.28,9.436c0,0,0.779,0.799,1.947,1.998
							c1.202,1.193,2.805,2.784,4.407,4.374c3.216,3.156,6.473,6.211,6.473,6.211s-4.472,0.019-8.985,0.142
							C53.178,201.2,48.629,201.417,48.63,201.417z"/>
						<path fill="#EC1C24" d="M65.576,167.268c0.879-1.704,1.574-2.814,2.092-3.324c0.923-0.856,1.893-1.373,2.91-1.548
							c1.016-0.176,2.406,0.031,4.167,0.621l0.349-0.603l-6.476-3.682c0,0-0.666,1.153-1.665,2.883
							c-1.048,1.702-2.184,4.116-3.428,6.47c-1.218,2.368-2.436,4.736-3.349,6.512c-0.46,0.887-0.839,1.627-1.067,2.164
							c-0.241,0.53-0.379,0.833-0.379,0.833l0.621,0.295l0.349-0.768c0.329-0.755,0.791-1.253,1.319-1.522
							c0.365-0.196,0.77-0.253,1.216-0.173c0.261,0.06,0.904,0.341,1.927,0.844l14.869,7.311c1.133,0.557,1.804,0.958,2.014,1.201
							c0.303,0.33,0.465,0.664,0.484,1.006c0.04,0.479-0.093,1.021-0.362,1.642l-0.319,0.706l0.621,0.296
							c0,0,0.129-0.287,0.356-0.788c0.213-0.508,0.577-1.205,1.011-2.042c0.864-1.677,2.015-3.913,3.167-6.148
							c1.157-2.233,2.263-4.493,3.255-6.101c0.945-1.632,1.575-2.721,1.575-2.721l-6.41-4.907l-0.328,0.567
							c1.638,1.619,2.601,3.271,2.887,4.949c0.285,1.679-0.137,3.441-1.102,5.402l-0.639,1.243
							c-0.306,0.594-0.614,0.978-0.926,1.151c-0.313,0.175-0.632,0.24-0.957,0.195c-0.325-0.045-1.103-0.386-2.335-1.023
							l-6.301-3.262c0.531-1.031,1.076-1.746,1.633-2.139c0.558-0.394,1.345-0.578,2.362-0.551c1.016,0.027,2.187,0.322,3.515,0.881
							l0.305-0.593l-11.584-6.306l-0.32,0.622c1.631,1.106,2.727,2.209,3.291,3.305c0.564,1.098,0.493,2.33-0.215,3.707
							l-0.223,0.434l-9.106-4.714L65.576,167.268z"/>
						<path fill="#EC1C24" d="M70.676,155.174l0.593,0.348c0.41-0.657,0.807-1.11,1.195-1.358c0.387-0.249,1.001-0.433,1.841-0.55
							l0.843-0.121l15.214,9.195c1.144,0.692,1.828,1.403,2.053,2.127c0.224,0.727,0.022,1.647-0.611,2.765l0.593,0.348
							c0,0,1.032-1.788,2.064-3.576c0.501-0.903,1.105-1.744,1.512-2.402c0.42-0.65,0.701-1.084,0.701-1.084l-0.582-0.366
							l-0.299,0.462c-0.43,0.665-1.027,1.121-1.793,1.372c-0.768,0.25-1.768,0.001-3-0.751l-13.666-8.346
							c0,0,1.684-0.197,4.208-0.493c2.52-0.28,5.859-0.619,9.16-0.9c3.304-0.285,6.57-0.513,9.002-0.659
							c2.484-0.091,4.141-0.151,4.141-0.151l0.34-0.474l-17.208-11.99c-0.975-0.679-1.604-1.242-1.886-1.688
							s-0.405-0.882-0.369-1.306c0.037-0.422,0.312-1.11,0.826-2.063l-0.56-0.399c0,0-1.223,1.709-2.446,3.418
							c-0.604,0.859-1.239,1.698-1.664,2.362c-0.428,0.662-0.713,1.104-0.713,1.104l0.571,0.383c0.73-1.208,1.595-1.837,2.544-1.909
							c0.692-0.053,1.659,0.351,2.902,1.209l8.915,6.15c0,0-1.24,0.056-3.1,0.139c-1.82,0.12-4.26,0.299-6.72,0.509
							c-4.914,0.411-9.926,0.977-9.926,0.977s-0.306,0.474-0.764,1.186c-0.445,0.72-1.099,1.642-1.65,2.627
							C71.807,153.221,70.676,155.174,70.676,155.174z"/>
						<path fill="#EC1C24" d="M86.323,131.253l5.519,4.003l0.406-0.566c-1.337-1.323-2.097-2.718-2.275-4.191
							c-0.111-1.038,0.264-2.305,1.341-3.629l1.135-1.435l15.401,11.847c1,0.77,1.58,1.295,1.737,1.576
							c0.227,0.392,0.316,0.757,0.269,1.097c-0.051,0.481-0.287,0.988-0.707,1.518l-0.458,0.625l0.55,0.413
							c0,0,0.111-0.155,0.305-0.426c0.207-0.262,0.501-0.635,0.856-1.084c0.71-0.896,1.657-2.09,2.604-3.284
							c1.892-2.39,3.783-4.78,3.783-4.78l-0.531-0.437l-0.48,0.607c-0.413,0.522-0.832,0.858-1.259,1.008
							c-0.427,0.151-0.806,0.177-1.14,0.079c-0.334-0.097-1.003-0.549-2.008-1.355l-15.155-12.16l1.171-1.479
							c0.735-0.927,1.335-1.505,1.801-1.732c0.83-0.411,1.697-0.551,2.54-0.474c0.844,0.078,1.996,0.477,3.454,1.197l0.434-0.498
							l-5.195-4.415c0,0-0.954,1.064-2.332,2.704c-1.331,1.679-3.105,3.918-4.88,6.157c-0.886,1.12-1.772,2.24-2.604,3.291
							c-0.414,0.526-0.814,1.035-1.193,1.517c-0.358,0.499-0.696,0.97-1.009,1.405C87.155,130.092,86.323,131.253,86.323,131.253z"
							/>
						<path fill="#EC1C24" d="M113.181,103.807c0.051,3.548,1.486,6.554,4.238,9.085c2.452,2.256,5.224,3.527,8.265,3.866
							c3.853,0.426,7.188-0.825,10.08-3.84c3.031-2.86,4.254-6.232,3.762-10.199c-0.371-2.989-1.604-5.691-3.75-8.06
							c-2.509-2.772-5.488-4.243-9.006-4.344c-3.511-0.1-6.74,1.319-9.566,4.232C114.493,97.148,113.128,100.261,113.181,103.807z
							 M121.334,93.667c1.174-0.174,2.556,0.125,4.144,0.899c1.588,0.774,3.521,2.375,5.814,4.794
							c1.925,2.031,3.274,3.877,4.06,5.529c0.785,1.653,1.087,3.11,0.901,4.375c-0.146,0.991-0.65,1.887-1.506,2.702
							c-1.216,1.268-2.671,1.746-4.379,1.451c-2.447-0.42-5.235-2.104-8.332-5.085c-2.604-2.508-4.271-4.776-4.98-6.826
							c-0.859-2.502-0.469-4.605,1.142-6.276C119.111,94.36,120.16,93.84,121.334,93.667z"/>
						<path fill="#EC1C24" d="M139.122,77.172c1.544-1.296,2.725-2.034,3.419-2.359c1.277-0.572,2.449-0.755,3.514-0.548
							c1.064,0.207,2.182,0.93,3.355,2.166l0.592-0.461l-4.413-5.723c0,0-1.058,0.824-2.645,2.061
							c-0.793,0.619-1.719,1.34-2.71,2.113c-0.495,0.388-1.005,0.79-1.525,1.197c-0.501,0.43-1.01,0.866-1.52,1.303
							c-4.07,3.496-8.141,6.991-8.141,6.991l0.458,0.513l0.638-0.549c0.54-0.464,1.048-0.742,1.523-0.832
							c0.476-0.09,0.871-0.059,1.187,0.095c0.316,0.153,0.896,0.716,1.742,1.687l10.884,12.493c0.83,0.952,1.294,1.582,1.394,1.889
							c0.154,0.422,0.175,0.795,0.062,1.121c-0.143,0.465-0.47,0.917-0.984,1.358l-0.588,0.504l0.458,0.513
							c0,0,2.311-1.983,4.621-3.965c1.155-0.992,2.309-1.985,3.175-2.729c0.433-0.373,0.793-0.683,1.045-0.9
							c0.261-0.207,0.41-0.325,0.41-0.325l-0.435-0.533c0,0-0.153,0.119-0.306,0.238c-0.147,0.126-0.295,0.252-0.295,0.252
							c-0.496,0.427-0.966,0.672-1.413,0.737c-0.446,0.065-0.822,0.019-1.129-0.143c-0.307-0.161-0.873-0.735-1.699-1.724
							l-4.944-5.915l0.53-0.456c0.972-0.832,2.071-1.299,3.359-1.308c1.275-0.027,2.745,0.825,4.414,2.555l0.486-0.378l-7.886-9.892
							l-0.508,0.396c0.729,1.143,1.151,2.171,1.272,3.083c0.119,0.911,0.016,1.706-0.314,2.387
							c-0.329,0.681-0.878,1.402-1.702,2.101l-0.533,0.458l-6.636-7.939L139.122,77.172z"/>
						<path fill="#EC1C24" d="M153.495,64.344l0.401,0.558c0.647-0.425,1.199-0.671,1.658-0.736c0.458-0.066,1.099,0.02,1.919,0.26
							l0.825,0.237L168.5,79.221c0.767,1.095,1.103,2.019,1.01,2.765c-0.093,0.748-0.66,1.496-1.703,2.246l0.401,0.558l6.751-4.762
							l-0.384-0.57l-0.45,0.318c-0.647,0.457-1.364,0.652-2.155,0.589c-0.791-0.063-1.601-0.688-2.428-1.878l-9.129-13.156
							c0,0,1.603,0.474,4.006,1.186c1.201,0.37,2.567,0.766,4.069,1.271c1.489,0.509,3.078,1.052,4.666,1.595
							c6.322,2.195,12.358,4.567,12.358,4.567l0.492-0.313L175.1,55.722c-0.618-1.015-0.968-1.787-1.049-2.314
							c-0.081-0.528-0.022-0.983,0.176-1.366c0.2-0.378,0.739-0.879,1.601-1.532l-0.351-0.591c0,0-1.843,1.013-3.597,2.172
							c-1.774,1.127-3.548,2.253-3.548,2.253l0.368,0.581c1.177-0.777,2.21-1.022,3.091-0.731c0.647,0.22,1.365,0.974,2.157,2.261
							l5.674,9.225c0,0-4.548-1.737-9.25-3.375c-2.347-0.822-4.723-1.625-6.52-2.216c-1.806-0.607-2.98-0.941-2.98-0.941
							L153.495,64.344z"/>
						<path fill="#EC1C24" d="M201.115,59.956c0.664,0.58,1.029,0.916,1.1,1.004c0.169,0.178,0.304,0.366,0.406,0.565
							c0.169,0.33,0.185,0.642,0.05,0.933c-0.204,0.41-0.709,0.818-1.518,1.229l-0.414,0.21l0.319,0.609c0,0,2.51-1.276,5.021-2.552
							c1.254-0.639,2.509-1.278,3.45-1.758c0.953-0.454,1.601-0.731,1.601-0.731l-0.293-0.622c-0.674,0.238-1.277,0.253-1.793,0.078
							c-0.681-0.222-1.805-1.032-3.39-2.42c0,0-4.163-3.675-8.484-7.271c-4.306-3.604-8.769-7.126-8.769-7.126l-0.317,0.162
							c0,0,0.084,1.366,0.211,3.416c0.125,2.028,0.352,4.802,0.604,7.55c0.495,5.501,1.139,10.919,1.139,10.919
							c0.249,2.069,0.298,3.498,0.135,4.296c-0.164,0.799-0.574,1.465-1.233,1.997l0.349,0.593l6.728-3.838l-0.332-0.603
							c-1.104,0.517-1.839,0.766-2.206,0.747c-0.624-0.03-1.109-0.351-1.457-0.965c-0.262-0.463-0.454-1.132-0.572-2.005
							l-0.33-2.634c0,0,1.834-1.044,3.669-2.087c1.881-0.956,3.763-1.912,3.763-1.912L201.115,59.956z M190.986,60.23
							c0,0-0.24-2.359-0.48-4.719c-0.213-2.369-0.427-4.738-0.427-4.738s1.837,1.498,3.675,2.996
							c1.813,1.511,3.626,3.022,3.626,3.022s-1.619,0.822-3.237,1.645C192.564,59.333,190.986,60.23,190.986,60.23z"/>
						<path fill="#EC1C24" d="M216.943,44.273c0,0,0.725,0.457,1.821,1.193c1.083,0.731,2.527,1.707,3.971,2.682
							c2.866,1.959,5.65,3.95,5.651,3.95c0,0,1.706-0.669,3.412-1.339c0.854-0.332,1.703-0.679,2.349-0.914
							c0.651-0.218,1.086-0.364,1.086-0.364L235,48.834c-0.598,0.169-1.193,0.123-1.761-0.059c-0.382-0.141-1.105-0.595-2.181-1.357
							c0,0-2.083-1.472-4.165-2.945c-2.124-1.457-4.248-2.914-4.248-2.914c1.237-0.897,2.105-1.856,2.604-2.876
							c0.776-1.608,0.851-3.286,0.201-5.026c-0.534-1.427-1.41-2.51-2.642-3.245c-1.232-0.734-2.59-1.037-4.07-0.909
							c-1.478,0.127-3.654,0.754-6.52,1.88l-10.79,4.83l0.291,0.623c1.059-0.476,1.826-0.705,2.3-0.687
							c0.474,0.017,0.861,0.153,1.159,0.405c0.3,0.253,0.729,1,1.291,2.241l6.739,14.893c0.562,1.241,0.843,2.052,0.844,2.431
							c0.002,0.379-0.128,0.747-0.389,1.101c-0.262,0.355-0.883,0.753-1.868,1.194l0.291,0.623c0,0,2.718-1.22,5.436-2.44
							c1.358-0.611,2.717-1.223,3.736-1.681c0.505-0.239,0.945-0.393,1.247-0.515c0.303-0.119,0.477-0.187,0.477-0.187l-0.263-0.635
							c-0.999,0.376-1.708,0.568-2.143,0.544c-0.438-0.034-0.798-0.18-1.079-0.441c-0.281-0.26-0.689-1.017-1.226-2.269l-2.78-6.488
							L216.943,44.273z M212.449,32.753c1.865-0.737,3.394-0.843,4.573-0.321c1.18,0.521,2.118,1.676,2.828,3.46
							c0.49,1.231,0.663,2.317,0.525,3.255c-0.138,0.938-0.532,1.706-1.184,2.3c-0.644,0.613-1.769,1.153-3.285,1.846l-0.935,0.42
							l-4.346-10.142L212.449,32.753z"/>
						<path fill="#EC1C24" d="M250.048,17.909c0.079,0.634,0.013,1.132-0.192,1.492c-0.207,0.361-0.502,0.596-0.885,0.704
							c-0.3,0.085-1.06,0.068-2.285-0.049c-2.119-0.198-4.051-0.049-5.776,0.44c-2.355,0.616-4.333,2.002-6.008,3.794
							c-1.667,1.815-2.738,3.94-3.209,6.374c-0.472,2.432-0.287,4.775,0.515,7.039c0.761,2.147,1.997,4,3.672,5.564
							c1.677,1.565,3.601,2.552,5.771,2.958c1.085,0.202,2.189,0.256,3.315,0.16c0.563-0.047,1.13-0.135,1.706-0.255
							c0.583-0.094,1.173-0.226,1.769-0.394c1.813-0.512,3.303-1.278,4.486-2.301c1.182-1.023,2.211-2.425,3.104-4.21l-0.559-2.101
							c-0.891,2.016-1.822,3.521-2.816,4.524c-0.994,1.003-2.193,1.702-3.608,2.102c-1.726,0.487-3.272,0.413-4.622-0.101
							c-1.358-0.541-2.58-1.606-3.665-3.193c-1.083-1.589-1.986-3.451-2.69-5.592c-0.715-2.176-1.006-4.274-0.85-6.299
							c0.117-1.582,0.663-3.013,1.64-4.295c0.968-1.308,2.254-2.075,3.772-2.526c1.823-0.517,3.626-0.397,5.382,0.367
							c1.756,0.765,3.182,2.176,4.285,4.231l0.685-0.193l-2.233-8.44L250.048,17.909z"/>
						<path fill="#EC1C24" d="M258.877,19.567c-1.903,3-2.351,6.303-1.438,9.929c0.814,3.231,2.435,5.812,4.791,7.759
							c2.988,2.474,6.453,3.221,10.53,2.319c4.101-0.729,6.972-2.879,8.737-6.466c1.33-2.704,1.784-5.64,1.292-8.797
							c-0.575-3.695-2.256-6.559-5.141-8.572c-2.881-2.014-6.358-2.582-10.326-1.717C263.624,14.698,260.777,16.572,258.877,19.567z
							 M271.261,15.56c1.077,0.499,2.068,1.506,2.971,3.024c0.902,1.518,1.64,3.918,2.228,7.198
							c0.494,2.755,0.608,5.039,0.358,6.852c-0.25,1.813-0.798,3.197-1.647,4.153c-0.666,0.748-1.577,1.224-2.74,1.431
							c-1.718,0.36-3.189-0.009-4.458-1.199c-1.813-1.691-3.221-4.626-4.175-8.817c-0.802-3.525-0.952-6.338-0.42-8.443
							c0.656-2.557,2.13-4.133,4.401-4.612C269.022,14.923,270.185,15.061,271.261,15.56z"/>
						<path fill="#EC1C24" d="M283.594,11.569l0.987,6.745l0.691-0.088c0.015-1.874,0.485-3.376,1.419-4.508
							c0.666-0.809,1.849-1.322,3.541-1.539l1.815-0.231l2.269,19.298c0.147,1.254,0.176,2.037,0.084,2.349
							c-0.122,0.44-0.32,0.765-0.596,0.975c-0.379,0.31-0.904,0.508-1.575,0.594l-0.768,0.098l0.088,0.682
							c0,0,3.022-0.388,6.045-0.775c1.507-0.232,3.034-0.273,4.171-0.382c1.14-0.087,1.899-0.146,1.899-0.146l-0.058-0.685
							l-0.772,0.06c-0.664,0.051-1.198-0.029-1.604-0.241c-0.407-0.211-0.691-0.471-0.854-0.782
							c-0.164-0.311-0.308-1.106-0.432-2.389l-1.87-19.34l1.881-0.146c1.18-0.091,2.015-0.044,2.503,0.142
							c0.876,0.342,1.581,0.837,2.113,1.485c0.533,0.648,1.051,1.742,1.551,3.28l0.658-0.051l-0.463-6.802
							c0,0-1.424,0.11-3.561,0.274c-1.068,0.083-2.314,0.179-3.65,0.283c-1.334,0.116-2.763,0.179-4.178,0.39
							C289.263,10.845,283.594,11.569,283.594,11.569z"/>
						<path fill="#EC1C24" d="M321.379,33.042c-0.654,0.018-1.176-0.088-1.566-0.32c-0.391-0.231-0.657-0.505-0.798-0.824
							c-0.142-0.318-0.231-1.121-0.267-2.409l-0.463-16.563c-0.036-1.263,0.01-2.045,0.139-2.345
							c0.175-0.426,0.423-0.73,0.743-0.912c0.442-0.273,1.031-0.418,1.768-0.438l0.842-0.022l-0.011-0.688
							c0,0-3.325,0.089-6.65,0.178c-1.662,0.056-3.326,0.066-4.57,0.15c-1.244,0.095-2.073,0.158-2.073,0.158l0.042,0.686
							l0.841-0.064c0.709-0.054,1.279,0.024,1.708,0.233c0.429,0.226,0.72,0.502,0.873,0.819c0.152,0.318,0.259,1.12,0.321,2.406
							l0.804,16.55c0.062,1.261,0.036,2.042-0.076,2.343c-0.142,0.424-0.355,0.727-0.646,0.908c-0.399,0.288-0.936,0.463-1.61,0.515
							l-0.773,0.06L310,34.152c0,0,0.758-0.059,1.896-0.148c1.139-0.079,2.662-0.082,4.183-0.133
							c3.042-0.081,6.085-0.162,6.085-0.162l-0.011-0.688L321.379,33.042z"/>
						<path fill="#EC1C24" d="M347.573,8.671c-0.132,0.624-0.355,1.069-0.666,1.338c-0.313,0.269-0.667,0.388-1.064,0.359
							c-0.311-0.023-1.021-0.299-2.14-0.829c-0.968-0.45-1.918-0.83-2.853-1.061c-0.936-0.215-1.853-0.334-2.748-0.355
							c-2.431-0.06-4.748,0.48-6.915,1.618s-3.871,2.771-5.11,4.897c-1.239,2.183-1.83,4.481-1.811,6.882
							c0.018,2.278,0.581,4.413,1.653,6.402c1.073,2.03,2.57,3.626,4.491,4.747c1.921,1.124,4.104,1.715,6.583,1.773
							c0.943,0.021,1.829-0.041,2.662-0.188c0.832-0.128,1.608-0.3,2.334-0.583c1.45-0.555,2.881-1.519,4.305-2.89l0.154-2.168
							c-1.497,1.59-2.867,2.685-4.133,3.285c-1.267,0.595-2.627,0.832-4.099,0.826c-1.794-0.041-3.235-0.549-4.343-1.523
							c-1.107-0.974-1.915-2.393-2.423-4.256c-0.506-1.864-0.751-3.923-0.718-6.177c0.034-2.291,0.443-4.362,1.251-6.213
							c0.627-1.447,1.608-2.607,2.95-3.479c1.339-0.872,2.809-1.288,4.392-1.249c1.896,0.008,3.555,0.796,4.963,2.104
							c1.409,1.322,2.296,3.139,2.67,5.451l0.709,0.053l0.635-8.708L347.573,8.671z"/>
						<path fill="#EC1C24" d="M367.806,10.762c-0.266,0.727-0.504,1.178-0.717,1.351c-0.212,0.172-0.479,0.239-0.8,0.199
							c-0.334-0.042-0.89-0.315-1.675-0.819c-0.784-0.504-1.461-0.868-2.027-1.088c-0.746-0.293-1.529-0.491-2.351-0.594
							c-2.25-0.282-4.188,0.167-5.799,1.497c-1.608,1.295-2.483,2.943-2.656,4.942c-0.101,1.172,0.07,2.265,0.508,3.279
							c0.438,1.014,1.104,1.952,1.995,2.812c0.895,0.826,2.369,2.041,4.421,3.415c1.463,0.995,2.459,1.779,3.005,2.352
							c0.545,0.574,0.929,1.156,1.153,1.747c0.225,0.589,0.296,1.179,0.219,1.768c-0.132,0.995-0.631,1.818-1.487,2.472
							c-0.856,0.653-1.919,0.901-3.194,0.74c-1.652-0.205-3.112-1.109-4.416-2.674c-1.309-1.505-2.109-3.61-2.393-6.313
							l-0.655-0.049l-0.819,9.475l0.634,0.047c0.249-0.491,0.552-0.847,0.906-1.07c0.354-0.221,0.682-0.322,0.98-0.299
							c0.354,0.027,0.796,0.181,1.32,0.471c0.936,0.568,1.716,0.972,2.345,1.214c0.629,0.242,1.306,0.409,2.032,0.501
							c2.313,0.292,4.313-0.223,6.036-1.535c1.723-1.314,2.755-3.009,3.061-5.092c0.241-1.643-0.024-3.16-0.815-4.558
							c-0.804-1.398-2.525-2.994-5.209-4.791c-1.918-1.29-3.153-2.174-3.678-2.652c-0.714-0.663-1.219-1.307-1.513-1.93
							c-0.212-0.463-0.291-0.972-0.235-1.527c0.087-0.875,0.528-1.603,1.331-2.182c0.804-0.58,1.84-0.791,3.102-0.633
							c1.633,0.205,3.078,1.033,4.309,2.479c1.23,1.447,1.869,3.234,1.931,5.364l0.742,0.093l0.969-8.34L367.806,10.762z"/>
						<path fill="#EC1C24" d="M405.469,18.474c-0.251,0.586-0.557,0.979-0.914,1.18c-0.358,0.201-0.729,0.247-1.112,0.139
							c-0.301-0.085-0.943-0.499-1.937-1.243c-1.726-1.252-3.492-2.006-5.235-2.423c-2.369-0.546-4.745-0.481-7.089,0.2
							c-1.172,0.341-2.255,0.826-3.248,1.456c-0.998,0.652-1.91,1.475-2.729,2.419c-1.639,1.896-2.663,4.029-3.111,6.389
							c-0.425,2.238-0.288,4.446,0.378,6.612c0.332,1.083,0.792,2.07,1.379,2.96c0.582,0.913,1.284,1.76,2.116,2.501
							c1.663,1.489,3.686,2.508,6.102,3.063c1.835,0.428,3.524,0.452,5.063,0.156c1.526-0.253,3.113-0.913,4.774-1.973l0.574-2.097
							c-1.775,1.26-3.329,2.06-4.685,2.395c-1.359,0.346-2.766,0.419-4.196,0.079c-1.748-0.401-3.061-1.189-3.955-2.368
							c-0.896-1.178-1.41-2.733-1.546-4.663c-0.133-1.931,0.026-4,0.497-6.205c0.479-2.24,1.282-4.191,2.434-5.844
							c0.895-1.294,2.082-2.235,3.565-2.822c1.481-0.586,3.003-0.7,4.546-0.344c1.842,0.44,3.363,1.355,4.477,2.97
							c1.123,1.579,1.638,3.54,1.554,5.884l0.685,0.194l2.319-8.417L405.469,18.474z"/>
						<path fill="#EC1C24" d="M412.278,24.298c-3.171,1.692-5.229,4.35-6.265,7.942c-0.924,3.202-0.815,6.225,0.253,9.05
							c1.378,3.511,3.947,6.051,7.902,7.39c1.975,0.668,3.855,0.879,5.666,0.641c1.817-0.261,3.502-0.808,5.164-1.908
							c2.493-1.623,4.354-3.911,5.519-6.886c1.363-3.482,1.362-6.833-0.096-10.083c-1.429-3.315-4.208-5.388-8.093-6.575
							c-1.756-0.673-3.479-0.985-5.153-0.931c-0.838,0.03-1.659,0.138-2.476,0.362C413.879,23.542,413.071,23.875,412.278,24.298z
							 M424.986,27.103c0.687,0.952,1.042,2.305,1.063,4.057s-0.548,4.19-1.689,7.321c-0.959,2.629-2.013,4.667-3.146,6.121
							c-1.134,1.454-2.31,2.393-3.532,2.815c-0.959,0.329-1.994,0.306-3.113-0.073c-1.664-0.563-2.729-1.683-3.221-3.366
							c-0.704-2.41-0.438-5.673,0.848-9.774c1.081-3.45,2.363-5.944,3.875-7.472c1.847-1.86,3.892-2.411,6.091-1.666
							C423.355,25.471,424.3,26.15,424.986,27.103z"/>
						<path fill="#EC1C24" d="M436.85,29.586l-0.254,0.639c0.71,0.308,1.218,0.635,1.521,0.982c0.305,0.346,0.578,0.927,0.82,1.742
							l0.247,0.817l-6.79,16.43c-0.511,1.235-1.11,2.019-1.792,2.348c-0.684,0.33-1.622,0.266-2.821-0.195l-0.254,0.639
							c0,0,1.92,0.758,3.84,1.516c0.961,0.375,1.924,0.75,2.62,1.089c0.705,0.32,1.175,0.534,1.175,0.534l0.273-0.631l-0.501-0.228
							c-0.725-0.32-1.253-0.869-1.63-1.558c-0.374-0.693-0.285-1.708,0.274-3.045l6.186-14.77c0,0,0.118,0.399,0.326,1.098
							c0.211,0.688,0.49,1.714,0.815,2.944c0.655,2.455,1.49,5.713,2.264,8.942c0.776,3.231,1.491,6.434,1.999,8.822
							c0.521,2.367,0.798,4.021,0.798,4.021l0.518,0.268l9.257-18.819c0.524-1.067,0.985-1.773,1.385-2.118
							c0.398-0.345,0.81-0.532,1.233-0.558c0.422-0.025,1.142,0.146,2.159,0.515l0.311-0.613c0,0-1.87-0.961-3.74-1.922
							c-0.926-0.5-1.896-0.909-2.61-1.241c-0.718-0.326-1.196-0.543-1.196-0.543l-0.292,0.622c1.294,0.562,2.062,1.291,2.292,2.186
							c0.162,0.665-0.097,1.692-0.756,3.047l-4.734,9.741c0,0-0.059-0.304-0.163-0.836c-0.112-0.52-0.273-1.263-0.466-2.155
							c-0.393-1.786-0.935-4.177-1.512-6.583c-1.142-4.808-2.453-9.69-2.453-9.69s-0.515-0.233-1.285-0.582
							c-0.764-0.368-1.814-0.779-2.865-1.192C438.948,30.417,436.85,29.586,436.85,29.586z"/>
						<path fill="#EC1C24" d="M462.863,41.444l-3.125,6.059l0.619,0.319c1.105-1.52,2.368-2.478,3.796-2.872
							c1.019-0.283,2.291-0.032,3.808,0.75c0,0,0.41,0.202,0.803,0.438c0.396,0.229,0.792,0.458,0.792,0.458l-9.393,17.01
							c-0.61,1.105-1.042,1.756-1.296,1.954c-0.353,0.282-0.699,0.424-1.042,0.427c-0.477,0.009-1.034-0.107-1.633-0.421
							l-0.688-0.354l-0.325,0.606c0,0,0.678,0.348,1.694,0.87c0.99,0.571,2.31,1.333,3.629,2.094
							c2.638,1.525,5.276,3.051,5.276,3.051l0.352-0.591l-0.67-0.387c-0.577-0.333-0.971-0.699-1.182-1.101
							c-0.212-0.401-0.294-0.773-0.247-1.119s0.393-1.075,1.038-2.189l9.742-16.812l1.633,0.945
							c1.024,0.593,1.684,1.103,1.978,1.532c0.521,0.774,0.813,1.575,0.872,2.404c0.065,0.822-0.159,2.026-0.654,3.578l0.555,0.358
							l3.585-5.799c0,0-1.186-0.799-3.056-1.849c-1.854-1.073-4.328-2.504-6.802-3.935c-1.237-0.714-2.475-1.429-3.635-2.098
							c-1.179-0.635-2.298-1.193-3.248-1.689C464.134,42.098,462.863,41.444,462.863,41.444z"/>
						<path fill="#EC1C24" d="M486.194,71.185c0,0-0.024,3.513-0.12,6.975c-0.089,3.467-0.248,6.882-0.248,6.882
							s1.49,1.066,2.981,2.133c0.746,0.532,1.496,1.059,2.024,1.5c0.538,0.427,0.897,0.712,0.897,0.712l0.418-0.546
							c-0.464-0.415-0.763-0.92-0.9-1.521c-0.074-0.418-0.09-1.264-0.033-2.581c0,0,0.105-2.545,0.211-5.091
							c0.07-2.572,0.14-5.143,0.14-5.143c1.428,0.55,2.706,0.757,3.834,0.621c1.773-0.223,3.225-1.071,4.334-2.561
							c0.91-1.222,1.344-2.544,1.292-3.977c-0.053-1.432-0.536-2.735-1.448-3.906c-0.91-1.17-2.62-2.654-5.124-4.444
							c0,0-0.15-0.107-0.413-0.295c-0.259-0.194-0.646-0.447-1.112-0.746c-0.931-0.602-2.173-1.403-3.414-2.206
							c-2.483-1.603-4.967-3.205-4.967-3.205l-0.366,0.582c0.977,0.629,1.586,1.147,1.828,1.555c0.243,0.407,0.34,0.805,0.289,1.192
							c-0.05,0.389-0.444,1.154-1.183,2.299l-8.857,13.739c-0.738,1.145-1.267,1.821-1.585,2.028
							c-0.318,0.208-0.698,0.298-1.138,0.271c-0.44-0.026-1.112-0.331-2.019-0.917l-0.366,0.583c0,0,2.503,1.615,5.006,3.23
							c1.251,0.809,2.502,1.618,3.44,2.224c0.907,0.651,1.513,1.085,1.513,1.085l0.391-0.565c-0.869-0.618-1.395-1.141-1.604-1.528
							c-0.21-0.386-0.282-0.767-0.215-1.144c0.066-0.377,0.479-1.13,1.24-2.26l3.944-5.854c0,0,0.334,0.216,0.669,0.432
							C485.872,70.951,486.194,71.186,486.194,71.185z M493.428,61.174c1.631,1.166,2.552,2.389,2.754,3.661
							c0.203,1.271-0.258,2.686-1.372,4.25c-0.77,1.079-1.588,1.814-2.451,2.208c-0.864,0.394-1.724,0.48-2.577,0.256
							c-0.857-0.219-1.95-0.83-3.319-1.779l-0.861-0.556l6.165-9.151c0,0,0.42,0.271,0.84,0.542
							C493.029,60.871,493.428,61.174,493.428,61.174z"/>
						<path fill="#EC1C24" d="M509.005,74.98c-3.545,0.376-6.422,2.076-8.704,5.037c-2.034,2.639-3.054,5.504-3.117,8.55
							c-0.039,1.928,0.332,3.691,1.121,5.294c0.793,1.599,2.011,3.029,3.56,4.435c3.137,2.743,6.622,3.646,10.545,2.796
							c2.963-0.648,5.477-2.034,7.665-4.392c2.531-2.726,3.82-5.912,3.58-9.385c-0.216-3.495-1.939-6.555-5.095-9.11
							c-0.688-0.641-1.384-1.215-2.137-1.662c-0.759-0.439-1.541-0.791-2.345-1.054C512.47,74.963,510.775,74.792,509.005,74.98z
							 M519.809,82.229c0.28,1.148,0.107,2.546-0.522,4.192c-0.63,1.645-2.056,3.708-4.267,6.202
							c-1.856,2.095-3.58,3.601-5.161,4.531c-1.581,0.929-3.012,1.361-4.294,1.293c-1.004-0.055-1.948-0.47-2.838-1.248
							c-0.662-0.579-1.134-1.23-1.42-1.957c-0.306-0.702-0.425-1.48-0.354-2.341c0.198-2.464,1.63-5.382,4.33-8.726
							c2.271-2.812,4.39-4.674,6.376-5.564c2.429-1.086,4.576-0.903,6.304,0.649C518.912,80.089,519.529,81.08,519.809,82.229z"/>
						<path fill="#EC1C24" d="M533.999,116.198c-1.846,0.932-3.349,1.523-4.514,1.769c-1.166,0.246-2.204,0.229-3.119-0.053
							c-0.913-0.281-1.795-0.872-2.648-1.776l-1.339-1.418c-0.759-0.804-1.197-1.349-1.315-1.637
							c-0.149-0.419-0.165-0.786-0.013-1.131c0.15-0.346,0.681-0.973,1.594-1.882l11.37-11.326c0.896-0.892,1.497-1.396,1.806-1.51
							c0.431-0.166,0.834-0.207,1.176-0.088c0.494,0.143,0.994,0.482,1.5,1.017l0.759,0.802l0.493-0.479
							c0,0-2.294-2.499-4.781-4.807c-2.444-2.351-4.889-4.701-4.889-4.701l-0.471,0.5l0.607,0.584
							c0.513,0.492,0.837,0.971,0.971,1.435c0.134,0.465,0.139,0.859,0.014,1.186c-0.125,0.328-0.635,0.954-1.528,1.881
							l-11.497,11.932c-0.876,0.91-1.463,1.427-1.761,1.554c-0.408,0.191-0.78,0.246-1.115,0.165
							c-0.479-0.1-0.961-0.383-1.448-0.853l-0.559-0.538l-0.471,0.5c0,0,0.931,0.896,2.328,2.24
							c1.385,1.356,3.291,3.106,5.099,4.953c3.551,3.758,7.103,7.516,7.103,7.516l7.149-5.307L533.999,116.198z"/>
						<path fill="#EC1C24" d="M558.283,135.112c1.258,0.141,2.381-0.141,3.361-0.856c0.931-0.678,1.611-1.599,2.034-2.77
							c0.433-1.179,0.493-2.407,0.148-3.66c-0.332-1.263-1.395-3.048-3.186-5.348c0,0-1.875-2.404-3.749-4.808
							c-1.955-2.338-3.955-4.64-3.955-4.64l-0.523,0.446c0.756,0.88,1.19,1.55,1.305,2.007c0.115,0.456,0.091,0.861-0.071,1.214
							c-0.163,0.353-0.768,0.965-1.815,1.835l-12.577,10.442c-1.048,0.87-1.757,1.356-2.125,1.46
							c-0.367,0.104-0.761,0.08-1.178-0.075c-0.417-0.152-0.978-0.638-1.68-1.456l-0.524,0.445c0,0,0.482,0.561,1.206,1.403
							c0.711,0.851,1.715,1.94,2.625,3.106c1.817,2.334,3.635,4.669,3.635,4.669c2.006,2.616,4.213,4.094,6.404,4.648
							c1.815,0.427,3.499,0.097,5.034-1.013c1.455-1.052,2.259-2.447,2.398-4.206c0.126-1.247-0.331-2.926-1.315-5.089
							C555.494,134.23,557.048,134.953,558.283,135.112z M551.076,131.873c0.271,0.954,0.196,1.921-0.227,2.899
							c-0.423,0.979-1.104,1.82-2.043,2.53c-0.819,0.621-1.692,1.017-2.614,1.193c-0.922,0.176-1.797,0.092-2.623-0.254
							c-0.827-0.347-1.521-0.88-2.087-1.606c-0.382-0.49-0.537-0.965-0.465-1.428c0.071-0.461,0.368-0.901,0.892-1.318l0.736-0.566
							l6.318-5.038C550.1,129.724,550.805,130.92,551.076,131.873z M557.854,121.198c1.126,1.426,1.797,2.578,2.007,3.453
							c0.211,0.875,0.168,1.702-0.128,2.48c-0.297,0.78-0.889,1.505-1.775,2.18c-0.886,0.675-1.751,1.058-2.589,1.149
							c-0.839,0.093-1.664-0.062-2.478-0.46c-0.814-0.4-1.744-1.271-2.794-2.619L557.854,121.198z"/>
						<path fill="#EC1C24" d="M559.999,158.258c-0.517,0.711-0.817,1.104-0.899,1.183c-0.162,0.184-0.337,0.335-0.525,0.455
							c-0.314,0.197-0.624,0.242-0.928,0.134c-0.428-0.166-0.884-0.629-1.371-1.396l-0.249-0.392l-0.578,0.372
							c0,0,1.512,2.376,3.023,4.753c0.379,0.594,0.757,1.188,1.111,1.745c0.344,0.563,0.636,1.106,0.901,1.563
							c0.522,0.918,0.871,1.53,0.871,1.53l0.593-0.348c-0.299-0.649-0.38-1.241-0.242-1.777c0.174-0.707,0.921-1.922,2.171-3.629
							c0,0,3.276-4.467,6.461-9.083c3.193-4.602,6.292-9.353,6.292-9.353l-0.191-0.301c0.001,0-5.44,0.802-10.799,1.754
							c-5.446,0.991-10.798,2.123-10.798,2.122c-2.043,0.435-3.466,0.614-4.278,0.524c-0.814-0.09-1.518-0.437-2.11-1.043l-0.56,0.4
							l4.466,6.33l0.57-0.384c-0.619-1.049-0.938-1.756-0.953-2.122c-0.028-0.622,0.246-1.133,0.827-1.534
							c0.438-0.302,1.088-0.553,1.95-0.75l2.6-0.567c0,0,0.304,0.432,0.761,1.078c0.474,0.635,1.024,1.536,1.593,2.425
							c1.132,1.781,2.264,3.563,2.264,3.563L559.999,158.258z M558.847,148.177c0,0,2.329-0.45,4.659-0.9
							c2.312-0.404,4.624-0.809,4.624-0.809s-1.323,1.96-2.646,3.92c-1.338,1.938-2.676,3.875-2.676,3.875s-0.975-1.532-1.948-3.064
							C559.914,149.647,558.847,148.177,558.847,148.177z"/>
						<path fill="#EC1C24" d="M583.572,156.317l-0.594,0.346c0.361,0.685,0.554,1.258,0.574,1.72
							c0.022,0.462-0.125,1.091-0.442,1.884l-0.315,0.798l-15.479,8.743c-1.164,0.657-2.116,0.902-2.851,0.738
							c-0.736-0.165-1.427-0.8-2.073-1.911l-0.595,0.346l4.096,7.174l0.604-0.328l-0.273-0.478c-0.394-0.688-0.52-1.42-0.381-2.201
							c0.14-0.78,0.84-1.526,2.104-2.233l13.979-7.811c0,0-0.626,1.548-1.565,3.871c-0.912,2.289-2.313,5.395-3.71,8.421
							c-2.794,6.077-5.736,11.851-5.736,11.851l0.265,0.52l18.89-9.113c1.07-0.517,1.872-0.791,2.405-0.82
							c0.53-0.027,0.99,0.069,1.335,0.312c0.346,0.241,0.801,0.822,1.365,1.744l0.623-0.292c0,0-0.216-0.479-0.539-1.198
							c-0.308-0.727-0.784-1.663-1.264-2.598c-0.951-1.874-1.903-3.748-1.903-3.748l-0.613,0.31c0.66,1.246,0.806,2.297,0.431,3.146
							c-0.281,0.623-1.101,1.264-2.459,1.926l-9.731,4.752c0,0,2.166-4.356,4.25-8.875c1.045-2.255,2.072-4.542,2.834-6.271
							c0.379-0.867,0.694-1.59,0.915-2.096c0.206-0.501,0.324-0.787,0.324-0.787L583.572,156.317z"/>
						<path fill="#EC1C24" d="M606.608,204.062c-0.74,0.002-1.287-0.091-1.637-0.281c-0.348-0.192-0.585-0.45-0.712-0.775
							c-0.082-0.208-0.128-0.965-0.142-2.273c-0.015-1.311-0.077-2.243-0.186-2.793c-0.186-1.015-0.511-2.115-0.973-3.293
							c-0.765-1.895-1.694-3.537-2.993-4.821c-1.292-1.287-2.811-2.277-4.549-2.962c-3.48-1.372-6.921-1.216-10.365,0.365
							c-1.924,0.882-3.492,2.061-4.713,3.515c-0.942,1.135-1.666,2.434-2.173,3.891c-0.505,1.457-0.759,2.978-0.757,4.564
							c0.028,1.576,0.324,3.431,1.148,5.474c0.629,1.606,1.408,3.088,2.336,4.456c0.908,1.374,2.051,2.604,3.182,3.787l4.929-1.775
							c0.862-0.311,1.421-0.456,1.676-0.435c0.48,0.028,0.866,0.176,1.159,0.443c0.291,0.266,0.609,0.812,0.952,1.634l0.648-0.226
							c0,0-0.235-0.696-0.587-1.741c-0.176-0.522-0.381-1.132-0.601-1.785c-0.249-0.642-0.516-1.327-0.782-2.011
							c-1.073-2.736-2.146-5.473-2.146-5.473l-0.639,0.253l0.228,0.58c0.212,0.542,0.283,1.045,0.213,1.512
							c-0.07,0.465-0.218,0.811-0.441,1.036c-0.225,0.225-0.8,0.515-1.725,0.87l-4.891,1.876c-0.458-0.489-0.855-0.985-1.192-1.489
							s-0.608-1.017-0.813-1.54c-0.59-1.508-0.703-2.969-0.346-4.398c0.38-1.439,1.204-2.724,2.674-3.938
							c1.453-1.207,3.285-2.295,5.503-3.252c1.83-0.789,3.719-1.33,5.671-1.607c1.938-0.272,3.702-0.065,5.13,0.697
							c1.435,0.758,2.503,2.029,3.195,3.795c0.725,1.847,0.805,3.78,0.228,5.773c-0.583,1.995-1.842,3.776-3.857,5.374l0.216,0.64
							l8.354-3.009L606.608,204.062z"/>
						<path fill="#EC1C24" d="M598.416,234.7c-2.069-0.036-3.676-0.212-4.823-0.537c-1.148-0.325-2.062-0.823-2.742-1.498
							c-0.68-0.673-1.188-1.605-1.525-2.801l-0.531-1.876c-0.3-1.063-0.436-1.748-0.407-2.058c0.056-0.438,0.234-0.776,0.534-1.012
							c0.3-0.237,1.065-0.546,2.296-0.926l15.337-4.728c1.207-0.373,1.972-0.537,2.293-0.492c0.453,0.055,0.808,0.213,1.062,0.475
							c0.372,0.356,0.658,0.889,0.859,1.598l0.302,1.063l0.659-0.194c0,0-0.231-0.816-0.579-2.04
							c-0.174-0.612-0.377-1.326-0.594-2.091c-0.254-0.753-0.523-1.558-0.794-2.361c-1.082-3.215-2.164-6.431-2.164-6.431
							l-0.65,0.224l0.27,0.799c0.228,0.674,0.293,1.248,0.197,1.72c-0.096,0.474-0.274,0.825-0.537,1.055
							c-0.262,0.231-1.004,0.549-2.227,0.954l-15.73,5.208c-1.198,0.397-1.959,0.582-2.282,0.556
							c-0.451-0.021-0.807-0.145-1.066-0.372c-0.379-0.311-0.676-0.785-0.892-1.426l-0.247-0.735l-0.649,0.224
							c0,0,0.412,1.225,1.03,3.061c0.31,0.918,0.671,1.989,1.059,3.137c0.193,0.574,0.394,1.167,0.598,1.769
							c0.174,0.611,0.351,1.232,0.527,1.854c1.408,4.972,2.815,9.943,2.815,9.943l8.802-1.362L598.416,234.7z"/>
						<path fill="#EC1C24" d="M597.689,253.56c-0.745,0.473-1.172,0.729-1.277,0.772c-0.219,0.112-0.438,0.189-0.657,0.23
							c-0.364,0.069-0.667-0.003-0.906-0.215c-0.332-0.312-0.577-0.912-0.736-1.805l-0.081-0.457l-0.675,0.134l1.983,11.084
							l0.679-0.106c-0.064-0.709,0.058-1.287,0.368-1.732c0.409-0.591,1.509-1.441,3.294-2.572c0,0,4.717-2.959,9.402-6.095
							c4.688-3.119,9.342-6.412,9.342-6.412l-0.063-0.351c0,0-1.35-0.301-3.374-0.752c-2.034-0.441-4.743-1.009-7.443-1.542
							c-5.405-1.078-10.771-1.988-10.771-1.988c-2.05-0.345-3.431-0.7-4.146-1.083c-0.718-0.383-1.236-0.964-1.555-1.748
							l-0.667,0.167l1.737,7.545l0.671-0.148c-0.178-1.206-0.204-1.983-0.08-2.33c0.207-0.59,0.653-0.967,1.341-1.127
							c0.519-0.121,1.213-0.117,2.083,0.016l2.613,0.427c0,0,0.475,2.056,0.949,4.112c0.242,1.027,0.479,2.055,0.6,2.838
							c0.139,0.779,0.231,1.298,0.231,1.298L597.689,253.56z M600.25,243.772c0,0,2.325,0.435,4.651,0.87
							c2.332,0.463,4.664,0.926,4.664,0.926s-1.919,1.333-3.837,2.667c-1.968,1.315-3.936,2.63-3.936,2.63s-0.282-1.794-0.728-3.556
							C600.658,245.542,600.25,243.772,600.25,243.772z"/>
						<path fill="#EC1C24" d="M596.802,274.488c0.182,1.488,0.426,2.566,0.622,3.249c0.44,1.544,0.996,2.837,1.666,3.883
							c0.671,1.045,1.522,1.953,2.558,2.726c1.034,0.771,2.317,1.378,3.848,1.816c1.53,0.439,3.18,0.607,4.947,0.493
							c2.559-0.166,4.808-0.874,6.745-2.161c1.938-1.286,3.32-3.099,4.145-5.436c0.669-1.909,0.934-4.396,0.499-7.408l-1.447-11.301
							l-0.679,0.104l0.107,0.836c0.091,0.706,0.043,1.283-0.143,1.733c-0.187,0.448-0.43,0.762-0.731,0.942
							c-0.302,0.181-1.09,0.36-2.366,0.539l-16.408,2.301c-1.287,0.181-2.066,0.237-2.338,0.171
							c-0.414-0.116-0.758-0.337-1.029-0.664c-0.272-0.326-0.451-0.825-0.536-1.496l-0.098-0.769l-0.68,0.104L596.802,274.488z
							 M620.205,274.63c-0.407,1.316-1.375,2.451-2.81,3.387c-1.847,1.186-4.38,1.904-7.601,2.186c-3.996,0.349-7-0.099-9.004-1.304
							c-0.742-0.442-1.316-1.01-1.723-1.707c-0.443-0.693-0.728-1.513-0.85-2.466c-0.075-0.582-0.04-1.038,0.104-1.368
							c0.096-0.23,0.255-0.406,0.477-0.525c0.221-0.119,0.85-0.241,1.882-0.364l19.516-2.325
							C620.472,272.205,620.475,273.702,620.205,274.63z"/>
						<path fill="#EC1C24" d="M622.219,300.555c0.051,1.917-0.027,3.224-0.232,3.92c-0.388,1.194-0.999,2.113-1.805,2.756
							c-0.808,0.643-2.126,1.13-3.954,1.46l-0.017,0.696l7.448,0.111c0,0,0.031-1.331,0.077-3.326
							c0.012-0.499,0.023-1.039,0.036-1.611c-0.015-0.572-0.03-1.175-0.047-1.798c-0.032-1.248-0.067-2.578-0.102-3.909
							c-0.072-2.661-0.144-5.323-0.197-7.318c-0.026-1.998-0.16-3.323-0.16-3.323l-0.687,0.039l0.064,0.841
							c0.076,0.82-0.118,1.48-0.439,1.969c-0.226,0.347-0.553,0.592-0.982,0.736c-0.258,0.073-0.957,0.135-2.096,0.186
							l-16.553,0.738c-1.262,0.056-2.042,0.028-2.343-0.085c-0.425-0.144-0.728-0.359-0.909-0.649
							c-0.279-0.4-0.391-0.941-0.458-1.615l-0.06-0.773l-0.687,0.039c-0.001,0,0.128,1.252,0.147,3.14
							c0.05,1.886,0.116,4.401,0.183,6.916c0.054,2.515,0.188,5.029,0.086,6.917c-0.046,1.887-0.077,3.145-0.077,3.145l7.979,1.217
							l0.016-0.655c-2.214-0.631-3.852-1.616-4.908-2.949c-0.528-0.667-0.918-1.439-1.169-2.316
							c-0.251-0.877-0.447-1.86-0.467-2.953l-0.039-1.397c-0.018-0.668,0.068-1.152,0.258-1.456c0.19-0.304,0.438-0.514,0.745-0.631
							s1.152-0.192,2.54-0.226l7.094-0.17c0.031,1.16-0.104,2.048-0.402,2.661c-0.3,0.614-0.901,1.154-1.807,1.619
							c-0.903,0.465-2.072,0.77-3.505,0.918l0.019,0.667L618,304.041l-0.019-0.699c-1.962-0.186-3.453-0.625-4.475-1.315
							c-1.022-0.691-1.554-1.805-1.595-3.354l-0.014-0.487l10.252-0.246L622.219,300.555z"/>
						<path fill="#EC1C24" d="M623.184,330.558c-0.74-0.227-1.203-0.441-1.387-0.646c-0.183-0.202-0.263-0.465-0.238-0.787
							c0.024-0.336,0.27-0.905,0.733-1.716c0.464-0.81,0.792-1.505,0.984-2.081c0.255-0.76,0.412-1.554,0.474-2.378
							c0.083-1.13-0.017-2.174-0.301-3.127c-0.317-0.955-0.834-1.819-1.518-2.587c-1.375-1.538-3.065-2.325-5.07-2.392
							c-1.176-0.04-2.259,0.189-3.249,0.68c-0.991,0.491-1.894,1.206-2.708,2.14c-0.785,0.937-1.863,2.476-3.158,4.596
							c-0.92,1.512-1.652,2.548-2.198,3.124c-0.546,0.574-1.107,0.988-1.686,1.243c-0.577,0.255-1.163,0.358-1.756,0.312
							c-0.999-0.079-1.847-0.534-2.544-1.354c-0.695-0.821-0.996-1.869-0.9-3.151c0.108-1.662,0.98-3.164,2.419-4.551
							c1.438-1.386,3.499-2.296,6.185-2.721l0.016-0.656l-9.506-0.319l-0.015,0.634c0.503,0.224,0.874,0.507,1.114,0.849
							c0.239,0.342,0.356,0.664,0.35,0.962c-0.009,0.355-0.143,0.804-0.402,1.343c-0.466,0.966-0.869,1.764-1.066,2.406
							c-0.21,0.641-0.343,1.325-0.398,2.056c-0.174,2.324,0.44,4.294,1.839,5.946c1.398,1.65,3.145,2.592,5.241,2.788
							c1.652,0.153,3.154-0.191,4.512-1.055c1.355-0.875,2.863-2.678,4.522-5.453c1.191-1.982,2.012-3.263,2.463-3.812
							c0.622-0.748,1.253-1.286,1.842-1.613c0.439-0.236,0.938-0.343,1.494-0.316c0.869,0.041,1.667,0.446,2.275,1.217
							c0.62,0.771,0.883,1.795,0.789,3.063c-0.121,1.641-0.876,3.128-2.258,4.432c-1.383,1.306-3.136,2.036-5.26,2.21l-0.056,0.746
							l8.379,0.529L623.184,330.558z"/>
						<path fill="#EC1C24" d="M606.827,351.567l-7.699-1.265c-1.246-0.204-2.005-0.393-2.277-0.566
							c-0.386-0.238-0.639-0.518-0.759-0.84c-0.188-0.438-0.223-0.994-0.105-1.673l0.13-0.747l-0.68-0.104l-2.071,11.982
							l0.674,0.133l0.129-0.746c0.11-0.646,0.317-1.137,0.622-1.478c0.303-0.34,0.623-0.543,0.962-0.609
							c0.338-0.066,1.141,0.018,2.407,0.252l16.292,3.02c1.242,0.23,1.998,0.439,2.266,0.629c0.383,0.261,0.632,0.567,0.746,0.918
							c0.182,0.478,0.208,1.087,0.079,1.825l-0.141,0.811l0.674,0.134l2.266-13.089l-0.68-0.104l-0.14,0.813
							c-0.121,0.7-0.337,1.241-0.647,1.62c-0.311,0.38-0.636,0.61-0.978,0.692c-0.341,0.084-1.146,0.021-2.418-0.188l-7.039-1.155
							c0,0,0.368-2.129,0.736-4.258c0.268-2.144,0.535-4.286,0.535-4.286l7.07,0.943c1.253,0.167,2.018,0.338,2.295,0.514
							c0.395,0.24,0.658,0.533,0.789,0.878c0.203,0.48,0.258,1.086,0.167,1.816l-0.104,0.835l0.681,0.1l1.638-13.192l-0.684-0.069
							l-0.104,0.835c-0.087,0.706-0.276,1.254-0.567,1.642c-0.292,0.387-0.605,0.631-0.942,0.73s-1.146,0.077-2.426-0.067
							l-16.464-1.859c-1.255-0.142-2.022-0.294-2.303-0.452c-0.398-0.207-0.665-0.469-0.801-0.784
							c-0.207-0.439-0.269-0.994-0.185-1.667l0.097-0.769l-0.685-0.069l-1.502,12.091l0.681,0.1l0.095-0.77
							c0.08-0.649,0.263-1.147,0.55-1.498c0.286-0.35,0.597-0.569,0.933-0.658c0.336-0.088,1.142-0.048,2.418,0.123l7.733,1.032
							c0,0-0.266,2.132-0.531,4.263C607.193,349.45,606.827,351.567,606.827,351.567z"/>
					</g>
				</g>
			</g>
		</g>
		<g id="g12852_1_" transform="translate(0.26457772,0.26348634)">
			<g id="g16727_1_" transform="translate(466.04924,-80.190333)">
				<path id="circle9402_1_" fill="#FFFFFF" d="M-283.042,426.658v0.003c-4.942,0.021-9.879,0.972-14.553,2.826l-0.028,0.009
					c1.496,3.736,3.14,7.414,4.898,11.041c3.142-1.188,6.439-1.802,9.744-1.816v0.002v0.001c4.066-0.021,8.14,0.849,11.921,2.608
					l-0.046-0.025c10.77,5.136,23.277,5.195,34.098,0.162c0.017-0.006,0.037-0.019,0.054-0.026c7.531-3.59,16.26-3.629,23.824-0.112
					c10.758,5.112,23.25,5.163,34.052,0.136c0.014-0.005,0.033-0.016,0.046-0.023c7.53-3.59,16.258-3.629,23.822-0.112l-0.046-0.021
					c5.442,2.594,11.332,3.889,17.221,3.889c5.889,0,11.775-1.295,17.217-3.889l-0.045,0.021c7.562-3.517,16.292-3.478,23.82,0.112
					c0.017,0.008,0.033,0.019,0.05,0.023c10.8,5.027,23.292,4.977,34.053-0.136c7.563-3.517,16.292-3.478,23.822,0.112
					c0.017,0.008,0.037,0.021,0.052,0.026c10.818,5.033,23.33,4.974,34.1-0.162l-0.047,0.025c3.781-1.76,7.855-2.629,11.921-2.608
					v-0.001v-0.002c3.305,0.011,6.606,0.628,9.746,1.816c1.758-3.627,3.397-7.305,4.895-11.041l-0.022-0.009
					c-4.673-1.854-9.61-2.805-14.555-2.826l-0.004-0.003c-5.828-0.026-11.663,1.218-17.071,3.733
					c-0.016,0.007-0.033,0.016-0.047,0.025c-7.513,3.582-16.222,3.629-23.771,0.136c-10.771-5.135-23.285-5.192-34.104-0.161
					c-0.02,0.007-0.037,0.019-0.055,0.027c-7.513,3.583-16.218,3.628-23.771,0.135c-10.77-5.135-23.279-5.193-34.097-0.159
					c-0.02,0.007-0.04,0.013-0.055,0.022c-3.807,1.813-7.919,2.717-12.032,2.717s-8.227-0.904-12.031-2.717
					c-0.02-0.01-0.038-0.016-0.053-0.022c-10.819-5.034-23.331-4.976-34.101,0.159c-7.552,3.493-16.256,3.445-23.769-0.135
					c-0.02-0.009-0.037-0.021-0.053-0.027c-10.821-5.031-23.335-4.974-34.105,0.161c-7.552,3.493-16.259,3.446-23.771-0.136
					c-0.015-0.01-0.033-0.019-0.047-0.025C-271.377,427.876-277.214,426.628-283.042,426.658L-283.042,426.658z M-108.883,450.863
					v0.007c-5.826-0.025-11.659,1.217-17.067,3.734c-0.02,0.005-0.038,0.015-0.053,0.021c-3.807,1.815-7.917,2.72-12.032,2.72v0.007
					h-0.002c-4.113,0-8.227-0.904-12.033-2.72c-0.018-0.007-0.036-0.013-0.052-0.022c-10.819-5.031-23.331-4.975-34.102,0.161
					c-7.551,3.493-16.256,3.445-23.768-0.139c-0.019-0.004-0.037-0.012-0.053-0.021c-10.819-5.033-23.336-4.976-34.106,0.161
					c-7.552,3.492-16.258,3.443-23.77-0.139c-0.014-0.006-0.034-0.014-0.047-0.022c-5.41-2.518-11.248-3.761-17.074-3.732v-0.013
					c-1.373,0.009-2.745,0.09-4.111,0.239c2.353,4.103,4.877,8.114,7.573,12.024c2.917,0.346,5.793,1.141,8.519,2.408l-0.048-0.021
					c10.771,5.135,23.282,5.202,34.101,0.166c0.017-0.009,0.037-0.017,0.052-0.027c3.764-1.795,7.831-2.702,11.899-2.724v0.002
					c4.069-0.016,8.142,0.851,11.924,2.608c10.76,5.111,23.251,5.171,34.052,0.145c0.015-0.009,0.033-0.018,0.048-0.029
					c7.529-3.59,16.26-3.632,23.823-0.114c5.43,2.582,11.3,3.871,17.172,3.873v-0.012h0.002v0.004c0.046,0,0.091-0.004,0.136-0.004
					h0.127v-0.003c5.802-0.041,11.596-1.328,16.956-3.885l-0.045,0.021c7.562-3.519,16.29-3.477,23.818,0.113
					c0.017,0.013,0.033,0.022,0.05,0.028c10.802,5.026,23.292,4.972,34.053-0.142c3.781-1.759,7.854-2.628,11.921-2.609v-0.002
					c4.071,0.021,8.136,0.93,11.901,2.724c0.017,0.011,0.037,0.023,0.054,0.029c10.818,5.033,23.328,4.972,34.098-0.167
					l-0.047,0.025c2.726-1.267,5.604-2.065,8.521-2.409c2.696-3.91,5.217-7.922,7.571-12.023c-1.367-0.149-2.739-0.229-4.108-0.237
					l-0.002-0.003c-5.827-0.022-11.665,1.217-17.075,3.733c-0.016,0.009-0.031,0.016-0.045,0.025
					c-7.513,3.579-16.222,3.628-23.771,0.136c-10.771-5.139-23.285-5.195-34.106-0.162c-0.018,0.008-0.035,0.015-0.053,0.021
					c-7.511,3.581-16.218,3.63-23.768,0.136c-5.388-2.568-11.208-3.867-17.036-3.895L-108.883,450.863z M-225.117,475.081
					l0.001,0.001c-5.827,0.024-11.647,1.327-17.033,3.896c-7.55,3.493-16.258,3.445-23.77-0.138
					c-0.015-0.006-0.033-0.018-0.047-0.027c-0.735-0.338-1.479-0.651-2.229-0.944c4.799,5.577,9.953,10.827,15.419,15.735
					c5.39-0.148,10.76-1.371,15.768-3.7c0.018-0.008,0.036-0.022,0.052-0.029c7.527-3.59,16.254-3.636,23.817-0.115l0.007,0.002
					c10.759,5.111,23.25,5.168,34.052,0.143c0.013-0.007,0.032-0.022,0.046-0.029c7.529-3.59,16.258-3.632,23.821-0.113
					l-0.046-0.025c5.443,2.595,11.33,3.891,17.219,3.893v-0.012h0.004v0.017c5.889-0.002,11.775-1.297,17.219-3.894l-0.047,0.025
					c7.563-3.519,16.292-3.478,23.824,0.113c0.013,0.007,0.029,0.024,0.046,0.034c10.802,5.026,23.292,4.969,34.048-0.144
					l0.011-0.004c7.56-3.518,16.286-3.472,23.814,0.116c0.019,0.005,0.037,0.022,0.056,0.03c5.008,2.328,10.373,3.55,15.769,3.697
					c5.462-4.907,10.617-10.16,15.417-15.731c-0.749,0.294-1.492,0.606-2.228,0.945c-0.016,0.008-0.033,0.014-0.049,0.025
					c-7.511,3.58-16.218,3.631-23.77,0.138c-5.386-2.566-11.21-3.867-17.036-3.894c-5.827-0.026-11.658,1.217-17.068,3.734
					c-0.02,0.006-0.039,0.013-0.055,0.023c-7.513,3.584-16.218,3.629-23.77,0.134c-0.011-0.002-0.013-0.006-0.019-0.006
					c-0.011-0.009-0.023-0.009-0.033-0.014c-5.37-2.553-11.172-3.846-16.978-3.872l-0.003-0.008
					c-5.825-0.027-11.656,1.217-17.064,3.733c-0.02,0.009-0.04,0.015-0.057,0.025c-3.805,1.816-7.917,2.719-12.028,2.719h-0.004
					v-0.003c-4.113,0-8.225-0.903-12.031-2.719c-0.018-0.006-0.036-0.014-0.052-0.024c-10.801-5.025-23.291-4.977-34.049,0.136
					c-7.564,3.52-16.292,3.479-23.821-0.111c-0.019-0.006-0.039-0.014-0.055-0.027C-213.457,476.299-219.29,475.056-225.117,475.081
					L-225.117,475.081z M-167.191,499.299v0.002v0.004c-5.825,0.024-11.646,1.327-17.031,3.896
					c-7.551,3.494-16.257,3.445-23.771-0.136c-0.019-0.008-0.036-0.021-0.053-0.027c-10.6-4.932-22.824-4.962-33.444-0.132
					c4.122,3.105,8.381,6.021,12.763,8.747c5.259-0.725,10.672,0.048,15.594,2.335l-0.052-0.028
					c10.771,5.135,23.286,5.2,34.104,0.167c0.015-0.01,0.033-0.016,0.048-0.026c7.529-3.592,16.258-3.632,23.821-0.112l-0.044-0.034
					c5.443,2.596,11.33,3.893,17.219,3.894v-0.014h0.002v0.021c5.889,0,11.775-1.297,17.221-3.891l-0.047,0.029
					c7.562-3.519,16.29-3.476,23.822,0.114c0.013,0.007,0.029,0.015,0.046,0.024c10.818,5.032,23.332,4.971,34.107-0.164
					l-0.055,0.025c4.923-2.289,10.339-3.058,15.596-2.336c4.384-2.723,8.643-5.639,12.762-8.745
					c-10.62-4.829-22.846-4.799-33.444,0.132c-0.02,0.009-0.037,0.014-0.055,0.026c-7.511,3.582-16.218,3.635-23.768,0.14
					c-5.386-2.57-11.208-3.867-17.033-3.896v-0.006c-5.826-0.026-11.659,1.218-17.067,3.732c-0.02,0.007-0.04,0.015-0.053,0.025
					c-3.745,1.785-7.787,2.686-11.829,2.715h-0.205c-4.114,0-8.227-0.907-12.033-2.723c-0.018-0.005-0.036-0.014-0.052-0.023
					c-5.41-2.517-11.241-3.761-17.068-3.733V499.299z M-167.191,523.525c-5.825,0.023-11.646,1.326-17.031,3.894
					c-1.956,0.906-3.992,1.568-6.062,1.998l-0.044,0.009c16.78,5.379,34.322,8.174,52.024,8.225v0.004h0.267h0.002v0.004
					c0.089,0,0.178-0.004,0.266-0.004c17.702-0.048,35.242-2.845,52.025-8.227l-0.045-0.007c-2.069-0.43-4.104-1.092-6.061-1.998
					c-5.386-2.569-11.208-3.866-17.033-3.893v-0.001c-5.826-0.026-11.659,1.215-17.067,3.731c-0.02,0.011-0.038,0.018-0.053,0.025
					c-3.745,1.787-7.787,2.689-11.829,2.716h-0.205c-4.113,0.002-8.227-0.902-12.031-2.718c-0.02-0.006-0.038-0.013-0.053-0.025
					C-155.533,524.743-161.363,523.497-167.191,523.525L-167.191,523.525z"/>
				<g id="g6103_1_" transform="matrix(0.83249756,0,0,0.83249756,-465.15087,93.230281)">
					<g id="g4173_1_">
						<path id="path933_1_" fill="#FFFFFF" d="M392.93,404.9h-6.075v-5.194c0-4.819-3.906-8.725-8.725-8.725
							c-0.106,0-0.209,0.001-0.313,0.005l-51.455,1.839c-15.844,0.564-29.527-7.862-43.745-17.002
							c-36.514-23.473-69.126-48.19-92.733-80.372c35.934,3.039,73.712,11.339,113.512,25.395
							c-21.606-27.74-38.359-57.403-49.293-89.371c26.369,9.638,50.863,23.52,73.623,41.333
							c-5.364-24.674-8.001-49.607-6.763-74.909c18.076,14.273,33.398,31.663,46.541,51.518
							c4.322-26.522,12.566-51.486,25.426-74.621V404.9z"/>
						<path id="path3915_1_" fill="#008F4C" d="M320.962,197.899l40.599,98.853l0.002,0.002c1.06-15.834,3.011-31.615,5.94-47.337
							C354.36,229.562,339.038,212.172,320.962,197.899L320.962,197.899z M254.102,231.473L360.92,342.776l0.006,0.006
							c-0.502-13.509-0.411-26.981,0.31-40.416h-0.015c-16.535-15.959-25.66-23.49-33.496-29.559
							C304.965,254.995,280.47,241.112,254.102,231.473L254.102,231.473z M189.885,295.45l173.399,80.372
							c-0.963-9.173-1.661-18.328-2.108-27.468h-0.018c-20.347-11.687-39.86-21.453-57.763-27.51
							C263.595,306.787,225.817,298.489,189.885,295.45z"/>
					</g>
					<g id="g4179_1_" transform="matrix(-1,0,0,1,252.09676,0)">
						<path id="path4175_1_" fill="#008F4C" d="M-140.833,404.9h-6.075v-5.194c0-4.819-3.906-8.725-8.728-8.725
							c-0.102,0-0.205,0.001-0.309,0.005l-51.457,1.839c-15.84,0.564-29.525-7.862-43.745-17.002
							c-36.514-23.473-69.126-48.19-92.736-80.372c35.936,3.039,73.716,11.339,113.515,25.395
							c-21.605-27.74-38.359-57.403-49.292-89.371c26.362,9.638,50.862,23.52,73.623,41.333
							c-5.367-24.674-8.004-49.607-6.765-74.909c18.076,14.273,33.399,31.663,46.54,51.518
							c4.326-26.522,12.566-51.486,25.428-74.621V404.9z"/>
						<path id="path4177_1_" fill="#FCFDFF" d="M-212.801,197.899l40.598,98.853l0.002,0.002
							c1.063-15.834,3.011-31.615,5.939-47.337C-179.404,229.562-194.726,212.172-212.801,197.899L-212.801,197.899z
							 M-279.659,231.473l106.818,111.303l0.005,0.006c-0.503-13.509-0.409-26.981,0.31-40.416h-0.014
							c-16.539-15.959-25.659-23.49-33.495-29.559C-228.797,254.995-253.297,241.112-279.659,231.473L-279.659,231.473z
							 M-343.877,295.45l173.398,80.372c-0.964-9.173-1.66-18.328-2.111-27.468h-0.018c-20.344-11.687-39.858-21.453-57.76-27.51
							C-270.167,306.787-307.946,298.489-343.877,295.45z"/>
					</g>
				</g>
			</g>
		</g>
	</g>
</g>
</svg>
