<?xml version="1.0" encoding="UTF-8" standalone="no"?>
<!-- Created with Inkscape (http://www.inkscape.org/) -->

<svg
   width="250"
   height="250"
   viewBox="0 0 66.145833 66.145833"
   version="1.1"
   id="svg1"
   xml:space="preserve"
   xmlns="http://www.w3.org/2000/svg"
   xmlns:svg="http://www.w3.org/2000/svg"
   xmlns:rdf="http://www.w3.org/1999/02/22-rdf-syntax-ns#"
   xmlns:cc="http://creativecommons.org/ns#"
   xmlns:dc="http://purl.org/dc/elements/1.1/"><title
     id="title78">Rangpur City Corporation (RCC) - রংপুর সিটি কর্পোরেশন</title><defs
     id="defs1" /><g
     id="layer1"
     transform="translate(-23.259451,-54.515846)"><g
       id="g78"
       transform="matrix(0.23517271,0,0,0.23517271,22.717545,54.028688)"><g
         id="g77"><path
           id="path147"
           style="vector-effect:none;fill:#00994b;fill-rule:evenodd;stroke-width:0.302597;stop-color:#000000"
           d="M 282.44415,142.70395 A 139.5074,139.5074 0 0 1 142.93675,282.21135 139.5074,139.5074 0 0 1 3.4293483,142.70395 139.5074,139.5074 0 0 1 142.93675,3.196545 139.5074,139.5074 0 0 1 282.44415,142.70395 Z" /><path
           id="path148"
           style="vector-effect:none;fill:#ffcb03;fill-opacity:1;fill-rule:evenodd;stroke-width:0.2294;stop-color:#000000"
           d="m 114.63538,13.151652 c -2.12411,-0.07883 -4.2568,0.124065 -6.28644,0.668693 -1.01896,0.273425 -2.00149,0.657966 -2.92488,1.128097 -5.01042,2.551317 -7.900074,7.359598 -6.739644,10.436055 0.834722,1.900357 3.120834,2.523763 4.990394,3.337264 -3.67275,1.265206 -7.284093,2.70813 -10.818462,4.322217 -5.220768,2.384319 -10.267874,5.140477 -15.096237,8.243424 -2.417034,1.553392 -4.777789,3.19286 -7.077087,4.914429 -2.533358,0.630628 -3.773826,-1.345146 -3.481441,-4.195609 0.290916,-2.836146 2.139104,-6.428309 5.497855,-8.587073 l 0.0026,-0.0021 c 4.865915,-3.125981 11.074175,-3.846377 17.816484,-1.809192 L 89.764563,30.009505 C 84.844917,27.893173 77.28456,27.697372 70.916101,30.63789 c -0.990286,0.457291 -1.935574,0.98534 -2.816883,1.582333 -5.699492,3.860796 -7.849136,11.083038 -5.349544,14.088029 1.410238,1.522833 3.775267,1.364428 5.807914,1.52187 -1.552613,1.217206 -3.075799,2.472365 -4.567163,3.764629 -0.562007,0.48697 -1.119421,0.979165 -1.672249,1.476395 1.044275,0.04916 2.08313,0.112826 3.116089,0.190169 0.476758,0.0357 0.952056,0.07409 1.426269,0.115756 1.107198,-0.942941 2.232107,-1.865231 3.373438,-2.76624 L 84.40365,68.56064 c 1.491424,0.367875 2.963026,0.769126 4.413684,1.203027 L 73.022933,48.476111 c 1.046474,-0.776467 2.105776,-1.535111 3.177584,-2.276347 0.998436,0.465746 1.934251,0.773448 3.082499,0.54777 0.55465,-0.144027 1.075331,-0.368518 1.586466,-0.621667 1.603544,-0.794152 3.147427,-1.888697 5.177979,-1.559078 2.611741,0.423899 2.933141,2.511598 2.913517,2.703711 -0.22436,2.196005 -0.818567,6.333023 -1.381828,6.684346 -0.457419,0.285306 -1.138128,0.08512 -2.058789,-0.592212 -0.286799,-0.210999 -0.596643,-0.468367 -0.930175,-0.772046 -0.18152,0.736964 -0.353858,1.47344 -0.517282,2.208651 1.346603,0.846497 2.54607,1.491089 3.608566,1.926497 1.953718,0.800631 3.444814,0.894902 4.552693,0.239779 2.216491,-1.310678 0.984784,-10.390176 3.643706,-11.674739 0.858779,-0.414889 1.843342,-0.150264 2.91455,0.750341 0.03749,0.03151 0.07495,0.06357 0.112655,0.09663 l 4.647776,10.193177 c 1.25118,0.608783 2.48048,1.241288 3.6866,1.896525 L 97.265898,34.625277 C 99.597053,33.640236 101.9599,32.7306 104.3497,31.898311 l 7.52151,21.596615 c 1.28913,0.835349 2.54826,1.695686 3.77703,2.580204 l -7.96489,-25.282178 c 0.72999,-0.229979 1.46234,-0.453029 2.19676,-0.668693 1.69386,-0.497331 3.39913,-0.956347 5.11339,-1.37666 l 3.70055,15.093136 c 0.49862,2.033601 4.31404,6.131471 6.31072,5.746936 1.38368,-0.266478 2.8104,-1.468918 4.09329,-3.132625 2.16308,-2.805238 4.11905,-7.199179 3.80132,-10.581783 -0.43537,-4.635151 -3.52819,-5.440358 -5.52783,-5.162476 -0.17975,0.02498 -0.35388,0.05872 -0.52245,0.100769 -2.16668,0.54046 -3.30504,2.387828 -2.97707,4.239534 0.46655,2.634179 2.60534,3.298399 4.00544,2.914551 0.18813,-0.05158 0.36502,-0.122056 0.52503,-0.209806 -0.003,0.676164 -0.0987,1.347549 -0.26717,2.001428 -0.57984,2.250014 -2.03243,4.356221 -3.6158,5.795512 -0.79995,0.692267 -1.88019,1.262279 -2.25361,-0.501778 l -3.62768,-17.135905 c 2.51751,-0.532891 5.05294,-0.982977 7.60057,-1.349272 2.91147,-0.418568 5.83801,-0.727394 8.77207,-0.926041 -1.12768,-1.000185 -2.28325,-1.984119 -3.46645,-2.950725 -0.3476,0.03299 -0.69553,0.06735 -1.04283,0.103353 -0.17504,-0.859447 -0.43272,-1.627232 -0.77567,-2.306836 l -0.18035,-1.668632 c -1.3041,-1.18967 -2.96342,-2.29279 -4.88187,-3.206006 -2.97226,-1.414759 -6.48815,-2.327893 -10.02833,-2.459281 z m 1.88051,2.757971 c 1.72748,0.0046 3.6939,0.262241 5.86424,0.926042 -1.80385,-0.0135 -4.323,0.918226 -6.73706,1.48363 -2.37059,0.555222 -4.56069,0.721524 -5.66425,-1.02371 0.58944,-0.283143 1.29094,-0.562369 2.10633,-0.7953 1.2145,-0.346941 2.70325,-0.595284 4.43074,-0.590662 z m -8.18142,2.34456 c 1.30603,3.159345 4.05209,3.921968 7.11378,3.809587 2.97844,-0.109326 6.69776,-1.104143 9.46609,-1.659847 0.14969,-0.02206 0.2931,-0.03846 0.43098,-0.05013 4.54504,-0.384352 2.19688,2.782319 2.0345,2.803447 -0.53368,0.06944 -1.06715,0.142518 -1.5999,0.219108 -5.68104,0.816826 -11.30023,2.039215 -16.80724,3.656107 -0.92217,0.270796 -1.84113,0.552693 -2.75642,0.845427 -3.6661,-0.354794 -2.66639,-5.252907 0.54415,-8.377783 0.48567,-0.472671 1.01556,-0.896084 1.57406,-1.245919 z m 35.41748,3.897953 c 1.0792,1.081412 2.12877,2.177416 3.14916,3.286621 4.26065,0.144128 8.5127,0.520321 12.73307,1.127063 1.74365,0.250699 3.48181,0.540816 5.21209,0.869715 l -0.34985,1.838647 c -1.49194,-0.09681 -3.2951,0.120124 -5.35058,0.691431 -2.9755,0.827042 -6.51673,2.410117 -10.31823,4.87102 1.27906,1.769988 2.49178,3.562379 3.63802,5.373832 1.76028,0.346439 3.44246,1.124437 4.88704,2.225188 2.8549,2.175341 4.63798,5.47726 4.70049,9.086784 0.3035,0.453069 0.60191,0.907423 0.89503,1.363224 l 4.12533,-18.517216 c 3.54345,0.789434 5.83562,2.537821 6.34845,4.510836 0.26575,1.022431 0.0614,2.102873 -0.64595,3.19257 -0.0316,-0.187379 -0.0772,-0.364746 -0.1354,-0.531751 -0.94805,-2.723133 -4.90832,-2.551464 -5.64823,0.543636 -0.6602,2.761689 2.06127,4.526676 4.38268,3.766179 0.40713,-0.133374 0.80967,-0.343179 1.18907,-0.639755 2.93742,-2.296135 3.77779,-6.589078 2.00092,-10.223665 -1.14203,-2.335926 -3.38299,-4.335491 -6.50813,-5.031734 l 0.39532,-1.775602 c 2.53388,0.564517 5.04924,1.213092 7.54063,1.944584 4.32273,1.269361 8.57087,2.787583 12.7186,4.544942 -6.27415,2.123801 -9.47379,7.431426 -10.47998,12.351184 -1.01313,4.953657 0.0543,9.733086 3.01428,11.797213 0.28652,0.19978 0.59311,0.37773 0.92036,0.53175 4.50571,2.120611 7.9437,-4.532517 4.20801,-6.341732 -0.92732,-0.449109 -1.79557,-0.379499 -2.47478,5.17e-4 -1.04635,0.585423 -1.64159,1.897287 -1.46244,3.202389 0.0233,0.169447 0.0595,0.338916 0.10955,0.506945 -0.0786,-0.08183 -0.15457,-0.164509 -0.22789,-0.248046 -2.22634,-2.53672 -2.08621,-5.989844 -0.45476,-9.280054 1.63962,-3.306671 4.74261,-6.311653 8.2734,-7.840348 2.75146,-1.191276 5.66185,-1.424595 7.87962,-0.245463 -0.42955,-1.444829 -0.89146,-2.890518 -1.38596,-4.33617 -1.19499,-0.594473 -2.39993,-1.169369 -3.61425,-1.723926 -5.22081,-2.384165 -10.60888,-4.393977 -16.11581,-6.011002 -5.50706,-1.616819 -11.1267,-2.838846 -16.80776,-3.655591 -5.41199,-0.777961 -10.87397,-1.187247 -16.34112,-1.224215 z m 19.81274,12.023556 -2.10529,11.075293 c -0.96442,-2.788968 -1.94978,-4.870626 -3.58687,-6.430616 -0.7649,-0.728887 -1.68482,-1.357359 -2.8298,-1.894974 0.75745,-0.502927 1.97727,-1.056685 3.3228,-1.533757 1.98458,-0.703661 4.10478,-1.188099 5.19916,-1.215946 z m -69.306878,1.770434 3.774964,8.279082 c -0.03909,-0.03473 -0.0779,-0.06936 -0.116789,-0.103353 -2.43531,-2.128261 -4.49148,-2.796298 -6.002734,-2.029851 -0.970761,0.492331 -1.706035,1.699045 -2.131136,3.591512 C 89.0635,43.280963 87.3829,40.736613 84.390198,41.142708 l -0.05219,-0.09043 c 3.203178,-1.84647 6.493504,-3.541504 9.857279,-5.077727 0.0209,-0.0095 0.04162,-0.01889 0.06253,-0.02842 z m 110.491968,4.935616 c -3.27509,-0.02988 -6.26899,1.250621 -7.27501,3.072164 -0.71742,1.298998 -0.0495,2.94453 0.91881,3.508313 0.47724,0.277881 3.2954,0.403108 3.67729,0.641822 0.56307,0.351966 0.83663,0.790782 0.82114,1.307413 -0.0105,0.35057 -0.15383,0.736794 -0.42737,1.160136 -0.20253,0.313464 -0.49719,0.604755 -0.88211,0.876949 -0.97889,0.69221 -2.51728,1.246258 -4.60696,1.759066 0.67498,0.768346 1.33592,1.544231 1.98179,2.326473 0.51339,0.621775 1.01714,1.247904 1.51206,1.877922 4.43731,-1.481711 8.77734,-2.187289 12.89378,-2.166793 0.246,2.292698 -0.38204,4.243251 -1.76423,5.885429 -2.5121,2.957952 -5.02312,5.91712 -7.53236,8.877494 -0.0125,0.743424 -0.0335,1.483535 -0.0636,2.221053 -0.0267,0.656771 -0.0603,1.311299 -0.10077,1.963188 l 17.51573,-19.683553 c -0.0954,0.565106 0.17983,1.133979 0.8201,1.720308 4.04017,3.698186 0.45824,7.819528 -0.7922,9.052677 l -11.47216,11.313005 c -0.20244,1.349063 -0.43237,2.685511 -0.68937,4.008024 l 20.03599,-18.676379 c -0.11756,0.787983 0.15407,1.537218 0.8108,2.266528 0.49833,0.553401 0.99124,1.111467 1.47898,1.674316 1.6027,1.849677 3.14713,3.749398 4.63073,5.69526 -6.80916,-1.324917 -12.41372,2.048837 -15.68328,6.077148 -3.30818,4.075893 -4.54616,8.82214 -2.23398,12.11399 1.3376,1.904335 3.39092,2.045607 5.01624,1.278475 0.3694,-0.174356 0.71413,-0.395977 1.01854,-0.654741 1.18303,-1.005631 1.75773,-2.595205 0.76274,-4.045748 -1.63724,-2.386858 -4.62812,-0.971648 -5.16299,1.324467 -1.13893,-4.520689 2.44969,-8.443415 7.46983,-10.309448 5.00869,-1.861778 11.23736,-1.451044 14.16192,1.956987 0.1963,0.228741 0.37504,0.469528 0.53486,0.722436 2.82393,4.468886 5.34437,9.12733 7.54062,13.9361 0.17342,0.379748 0.34484,0.759977 0.51418,1.141533 l -1.56734,0.696081 c -0.18098,-0.329598 -0.41501,-0.675585 -0.70177,-1.036112 -1.8684,-2.348876 -6.20881,-5.521054 -12.83126,-8.251176 -0.71226,1.960272 -1.47561,3.882175 -2.2872,5.763989 1.66691,2.970192 1.2838,6.520203 -0.19895,9.482622 -0.94136,1.88073 -2.30654,3.50894 -3.82457,4.71754 -0.1937,0.52132 -0.39195,1.03923 -0.59428,1.5534 l 23.44663,-9.537404 c 0.78411,1.927694 1.51674,3.876434 2.19728,5.843054 0.85459,2.46961 0.36844,4.2751 -1.27589,5.34076 -2.23139,-2.83387 -5.45916,-3.64335 -7.2192,-3.02359 -2.44437,0.86073 -3.10335,3.05134 -2.44119,5.19607 0.15335,0.4967 0.38724,0.93231 0.70176,1.30224 0.82266,0.96759 2.21346,1.49618 4.14083,1.42369 -2.31704,1.36448 -3.23918,2.96928 -2.78897,4.9506 0.55068,2.42351 2.35626,3.44141 4.65811,3.00602 1.70222,-0.32198 3.23549,-2.08714 4.37338,-5.4746 1.45555,0.60506 2.28277,1.38675 2.47065,2.30012 0.35012,1.7021 -2.26842,5.07781 -5.10563,5.54384 l -14.66784,2.40968 c -0.66584,0.75065 -1.34068,1.48648 -2.02365,2.20813 -0.27404,0.28957 -0.5491,0.57707 -0.82579,0.86196 8.70546,-1.16587 17.41123,-2.32787 26.11778,-3.48557 -0.42129,0.39123 -0.597,0.98034 -0.50281,1.7632 0.5608,4.65971 0.84167,9.35189 0.84078,14.04565 -4.2e-4,2.13228 -0.0586,4.26413 -0.17518,6.39289 l -13.72837,-0.74879 c 4.06695,-1.09563 6.72953,-2.99276 7.85534,-5.6441 0.42652,-1.0045 0.62797,-2.11116 0.59273,-3.30367 -0.24545,-8.30649 -11.52173,-7.29532 -11.25823,-0.73588 0.0925,2.30274 1.89941,3.781 3.83129,4.03955 0.38808,0.0519 0.78025,0.0535 1.16272,0 1.13498,-0.15872 2.18789,-0.80503 2.76056,-2.04639 0.0138,0.72996 -0.12279,1.41335 -0.37931,2.04639 -2.31194,5.70559 -13.50867,6.64156 -14.86783,6.75153 -0.51496,0.3996 -1.03244,0.79212 -1.55236,1.1777 l 25.31939,2.1916 c -0.10913,1.26063 -0.23873,2.51993 -0.38861,3.77651 1.19179,-0.92306 2.37287,-1.87702 3.5419,-2.8608 0.33724,-3.66864 0.50642,-7.35196 0.50643,-11.03654 -4e-5,-5.22706 -0.34032,-10.45171 -1.01802,-15.63419 -0.0852,-0.65187 0.21443,-1.20932 0.9002,-1.68155 0.5594,-0.3852 1.37836,-0.71437 2.45205,-0.98288 0.3919,-0.66462 0.77851,-1.3357 1.15962,-2.0128 l -6.25854,1.02474 c -2.49187,0.40805 -4.4042,1.10613 -5.72678,2.04587 2.96149,-2.2344 6.2631,-5.61283 5.39967,-9.41751 -0.3861,-1.70138 -2.41462,-3.41921 -6.06474,-4.86534 0.65977,-0.55883 1.22174,-1.10617 1.67173,-1.67638 1.35988,-1.72321 1.73837,-3.72731 0.60771,-6.93033 -1.1909,-3.373821 -2.53184,-6.694329 -4.01836,-9.949776 -2.38409,-5.22059 -5.13968,-10.267952 -8.24239,-15.096236 -3.1028,-4.828507 -6.54904,-9.432327 -10.30738,-13.770219 -0.88239,-1.018353 -1.78216,-2.022152 -2.69802,-3.010153 -0.63319,-0.683003 -0.12792,-1.933168 1.51463,-3.77548 -0.0765,-0.78346 -0.16147,-1.569054 -0.25476,-2.356445 -1.49389,1.495491 -2.98815,2.990417 -4.48345,4.484481 -1.13131,1.129799 -2.25684,2.56512 -3.39566,4.334102 1.85316,-3.68188 2.33384,-7.214604 -1.1746,-10.361641 -0.91839,-0.823349 -0.62956,-2.197271 0.89503,-4.134115 -0.017,-0.08172 -0.0344,-0.16372 -0.0517,-0.245463 -0.0185,-0.08767 -0.0371,-0.175339 -0.0558,-0.263033 0.0541,0.04672 0.10824,0.09375 0.16226,0.14056 1.06556,0.923302 2.1153,1.864377 3.14864,2.823083 4.51709,0.149685 9.11672,0.567323 13.77074,1.267107 -0.91561,-1.00119 -1.84654,-1.988417 -2.79208,-2.96106 -4.23155,-1.199936 -8.44863,-2.150589 -12.6261,-2.861841 -1.45271,-0.247325 -2.90033,-0.465404 -4.34185,-0.65474 0.5148,0.419885 1.02671,0.843642 1.53479,1.271757 -1.71703,2.065229 -3.43491,4.129663 -5.15369,6.19342 -1.19791,1.438749 -2.17536,3.014152 -2.93988,4.732011 1.94424,-7.439195 0.0222,-12.762629 -4.4328,-15.777331 -0.79496,-0.537951 -1.68424,-0.944191 -2.61586,-1.225765 -1.09094,-0.3297 -2.21405,-0.4851 -3.30574,-0.495061 z m 1.94613,4.791956 c 1.38896,0.06155 2.65718,0.422573 3.6866,1.156518 1.12577,0.803011 1.95967,2.049523 2.32079,3.810621 -3.97658,0.05161 -6.95616,0.511649 -8.84959,1.092439 0.58651,-0.437335 1.57149,-2.673804 0.42219,-4.475695 -0.27239,-0.427049 -0.66459,-0.827617 -1.20716,-1.165304 0.74523,-0.18772 1.48327,-0.318708 2.20245,-0.382922 0.48545,-0.04334 0.96173,-0.05617 1.42472,-0.03566 z M 58.209367,61.536296 c -1.507208,0.02062 -3.023912,0.0721 -4.549593,0.155029 -0.618479,0.681519 -1.229655,1.370411 -1.832447,2.066024 -3.75851,4.33773 -7.204875,8.941805 -10.307897,13.770219 -0.953054,1.482964 -1.873141,2.986307 -2.760039,4.509285 -0.620636,1.065753 -2.022914,1.063943 -4.229716,-0.03411 -0.735978,0.321252 -1.471064,0.651471 -2.20555,0.990637 2.70815,1.438894 5.415753,2.879158 8.122502,4.320666 1.6524,0.879999 3.393071,1.515484 5.230688,1.914095 -5.346488,-0.270438 -9.301026,1.077997 -11.912968,3.618384 -1.136692,1.105634 -2.01255,2.432024 -2.63033,3.936194 -2.11793,5.156741 0.787747,11.648861 4.011641,12.644191 1.417898,0.43776 2.893122,-0.55155 3.247864,-1.61437 0.174845,-0.52384 -0.276832,-3.30854 -0.120923,-3.73104 0.38703,-1.04881 1.173612,-1.33684 2.335258,-0.88832 1.241228,0.47925 2.40474,2.12724 3.699516,4.83692 1.10342,-1.46703 2.238859,-2.8932 3.403927,-4.27726 -1.12772,-1.93574 -2.076878,-3.887021 -2.849956,-5.838924 -0.840454,-2.122071 -1.471967,-4.242475 -1.898075,-6.342765 2.194499,-0.707777 4.232327,-0.490052 6.12159,0.52865 3.308574,1.802943 6.617645,3.604069 9.92788,5.403891 0.164213,0.08928 0.446175,0.133253 0.629923,0.09898 0.179329,-0.03345 0.358612,-0.06632 0.537829,-0.09865 0.418852,-0.07555 1.064733,0.02619 1.436627,0.233167 0.439162,0.244415 0.828518,0.475353 1.042623,0.62579 -4.815192,2.008446 -2.386859,6.256286 -0.562756,7.096726 4.68776,2.15984 8.082795,-3.01883 4.295345,-6.837827 2.297902,-0.799283 4.156207,-1.232929 5.64255,-1.48363 1.158551,-0.195451 2.19443,-0.297658 3.172933,-0.363285 -1.043269,-0.437097 -2.091109,-0.866296 -3.142961,-1.28726 -0.74286,0.07231 -1.455389,0.176297 -2.130619,0.300756 -2.584485,0.476294 -4.544759,1.246324 -5.346444,1.592151 -0.584319,-0.304395 -1.205505,-0.578924 -1.865519,-0.821138 -0.0012,-4.55e-4 -0.0026,-9.46e-4 -0.0041,-0.0016 L 40.601139,83.835193 c 0.572694,-0.02167 1.073641,-0.406952 1.517737,-1.152901 0.684355,-1.149404 1.388113,-2.287222 2.111499,-3.412712 2.738575,-4.260961 5.752558,-8.342789 9.018054,-12.214241 l 1.310515,1.105358 c -1.658724,2.342069 -2.939123,7.953809 -2.441195,16.177824 l 0.0031,0.05323 c 0.02291,-0.0024 0.04583,-0.0049 0.06873,-0.0072 2.051252,-0.212532 4.090745,-0.363746 6.115389,-0.455269 2.83563,-4.083007 8.763654,-4.704018 13.162504,-3.153813 0.47342,0.16684 0.930929,0.356142 1.368392,0.56534 0.553485,-0.0536 1.105382,-0.10147 1.65623,-0.144177 L 55.665853,64.277214 c 0.833219,-0.927103 1.681267,-1.840919 2.543514,-2.740918 z m 0.282153,9.941512 8.542114,7.204728 c -5.27279,-1.019012 -7.850089,-0.763235 -10.07432,1.309997 0.02005,-2.927855 0.79018,-7.157725 1.532206,-8.514725 z m 7.306531,12.36927 c -0.675045,0.0555 -1.301385,0.36918 -1.714624,0.931727 -0.826479,1.125093 -0.448328,2.766784 0.812353,3.643705 1.260681,0.87692 2.89,0.709801 3.669544,-0.3514 0.779544,-1.061201 0.452035,-2.665685 -0.761711,-3.606498 -0.606873,-0.470407 -1.330517,-0.673033 -2.005562,-0.617534 z m 171.122369,8.94054 c 2.07597,1.026465 4.62054,2.779623 6.14071,4.190442 0.38311,0.355566 0.67717,0.66937 0.8475,0.908988 l -10.21333,4.533572 c 0.45853,-0.61161 0.86942,-1.18718 1.233,-1.72806 2.19767,-3.269485 2.76579,-5.385429 1.99212,-7.904942 z M 38.590409,93.155037 c 0.166708,0.752489 0.340571,1.463343 0.518832,2.13217 0.744501,2.793199 1.578288,4.899843 2.353344,6.309173 -0.660287,-0.58489 -4.201929,-1.24745 -5.36298,1.91772 -1.242219,-2.55933 -1.699901,-5.188857 -0.767395,-7.310153 0.321599,-0.731144 0.80761,-1.396866 1.47898,-1.966288 0.491327,-0.416695 1.081871,-0.781617 1.779219,-1.082622 z m 188.319771,2.730066 c -0.35253,0.05088 -0.70635,0.167893 -1.04128,0.355534 -1.33975,0.750588 -1.901,2.289094 -1.28726,3.454053 0.61374,1.16496 2.19983,1.57186 3.57653,0.89142 1.37666,-0.680427 1.99427,-2.248408 1.34358,-3.48351 -0.48801,-0.926326 -1.53397,-1.370127 -2.59157,-1.217497 z m -162.328592,3.65094 c 1.956139,2.495837 0.422851,5.355707 -1.505335,4.525307 -0.917622,-0.39526 -1.152445,-1.24385 -0.845943,-2.14354 0.307458,-0.90257 1.152389,-1.83914 2.351278,-2.381767 z M 31.204814,113.50005 c -2.866124,-0.0509 -5.796482,2.18599 -6.408911,5.2002 -0.707607,3.48263 1.194836,6.59008 4.246769,7.04453 3.825624,0.56966 6.57236,-2.41581 7.177339,-5.3144 0.686874,-3.29097 -1.40096,-6.13426 -3.797701,-6.76393 -0.399884,-0.10506 -0.80805,-0.15913 -1.217496,-0.1664 z m -1.919263,2.48202 c 0.186969,-0.0285 0.394036,-0.0159 0.621151,0.0377 1.407283,0.33221 3.285321,4.09577 2.950724,5.86476 -0.180462,0.95409 -0.669788,1.36424 -1.490348,1.22008 -1.549288,-0.27219 -3.618876,-3.87205 -3.204973,-5.74642 0.18411,-0.83374 0.562539,-1.2905 1.123446,-1.37614 z m 24.006287,0.41651 c -5.137318,0.96207 -11.321726,2.95716 -17.12402,7.01766 1.835037,0.95269 3.681387,1.87353 5.537647,2.7621 3.990628,-3.65958 8.740436,-6.86971 13.633793,-8.62893 -0.684128,-0.37956 -1.366749,-0.76307 -2.04742,-1.15083 z m -26.812834,12.0003 c -1.194991,0.91885 -2.379255,1.86826 -3.551721,2.84789 -0.363321,3.80746 -0.545794,7.63151 -0.545703,11.45718 1.64e-4,4.77147 0.283784,9.54086 0.849043,14.27872 0.937799,-1.20637 1.893739,-2.38525 2.866492,-3.53674 -0.328228,-3.57065 -0.492986,-7.15591 -0.492993,-10.74198 1.2e-5,-2.30669 0.06819,-4.61313 0.204122,-6.91534 l 1.712557,0.10129 c 0.04068,1.59709 0.798792,3.94159 2.384867,6.81405 1.247157,2.2586 3.025217,4.87295 5.376933,7.6476 1.532327,-1.41493 3.092662,-2.77301 4.677234,-4.07262 -0.0434,-1.24974 0.198925,-2.45629 0.658874,-3.57498 1.596544,-3.88312 5.624304,-6.44075 9.432499,-7.19594 0.411296,-0.37439 0.824546,-0.7439 1.240235,-1.10794 l -25.209314,-2.28359 c 0.112446,-1.2413 0.244929,-2.4804 0.396875,-3.7176 z m 6.178434,7.79436 11.154875,0.65836 c -4.147355,2.00772 -6.145632,3.59225 -6.961849,5.85235 -0.138565,0.38368 -0.245133,0.79085 -0.324011,1.22732 -0.272025,-0.36929 -0.554644,-0.78321 -0.838709,-1.22732 -1.489241,-2.32827 -2.854948,-5.27785 -3.030306,-6.51071 z m 15.232662,4.82968 c -1.230781,-0.0218 -2.284902,0.67052 -2.654618,1.68103 -0.09154,0.25021 -0.139729,0.51833 -0.13746,0.79685 0.01137,1.39556 1.297122,2.4846 2.831869,2.43241 1.534793,-0.0522 2.739756,-1.16171 2.729032,-2.47788 -0.0021,-0.2626 -0.05266,-0.51475 -0.144177,-0.75138 -0.364641,-0.94264 -1.397699,-1.65931 -2.624646,-1.68103 z m -4.793506,22.81256 -5.25601,13.87564 -14.8208,0.71055 11.57242,9.28677 -3.904155,14.31489 12.408545,-8.13594 12.408028,8.13594 -3.904154,-14.31489 11.57242,-9.28677 -14.820801,-0.71055 z m 199.680316,0 -5.25601,13.87564 -14.82028,0.71055 11.5719,9.28677 -3.90364,14.31489 12.40803,-8.13594 12.40803,8.13594 -3.90364,-14.31489 11.57242,-9.28677 -14.8208,-0.71055 z M 67.53748,207.58785 c -0.02907,0.17457 -0.05761,0.34949 -0.08578,0.52451 -0.113673,0.707 -0.220032,1.41747 -0.318844,2.13165 1.129435,1.26753 2.290792,2.50716 3.482475,3.71657 -2.580311,1.93858 -3.857108,1.63723 -4.025077,1.4609 -0.28351,-0.29764 -0.37189,-0.85743 -0.252181,-1.67019 -0.281812,-0.0597 -0.563785,-0.12102 -0.845944,-0.18345 -0.568123,1.43901 -0.444253,3.27248 0.482658,4.22248 1.137392,1.16573 3.764792,-0.29334 5.179529,-1.38079 -1.129999,1.60051 -1.879185,3.23537 -1.273307,5.09788 -2.231325,-1.43164 -4.523763,-1.65552 -5.582088,-0.60306 -0.827417,0.82282 -0.74181,1.75594 0.309025,2.77244 1.391842,1.34636 3.529368,1.05209 4.713407,-0.03 1.277908,0.41661 1.906318,1.07265 1.99471,1.71153 0.08974,0.64869 -0.382992,1.27576 -1.332735,1.5384 -0.07491,0.0207 -0.152782,0.0388 -0.233577,0.0548 -2.040876,0.40286 -4.645137,-0.63205 -6.148462,-2.08359 -0.720864,-0.69604 -1.441878,-2.129 -2.050004,-4.26382 -0.549255,1.74124 -1.065248,3.50236 -1.547193,5.28236 1.794084,2.23121 3.226812,4.70064 4.362008,7.49308 0.864514,2.12667 1.554798,4.43752 2.095479,6.95979 0.220305,-0.57053 0.44292,-1.1399 0.66766,-1.70791 -0.353384,-2.85177 -0.898797,-5.18973 -1.390096,-6.83679 -0.452986,-1.51855 -0.863974,-2.46372 -1.050582,-2.7342 0.886498,0.54772 1.774819,0.84579 2.614311,0.93017 1.642803,0.16513 3.090558,-0.48824 4.067968,-1.65778 0.522918,-0.6257 1.50036,-1.97757 0.81132,-3.97391 -0.05099,-0.14773 -0.110873,-0.29892 -0.180867,-0.45372 0.131997,0.0803 0.2632,0.14975 0.393774,0.20825 2.635874,1.18112 4.748315,-1.90686 4.645195,-4.17235 0.547045,0.46672 1.099346,0.92733 1.656229,1.38234 1.395179,1.13996 0.319506,3.92319 -0.680578,5.21467 l -6.287988,8.12043 c 0.08364,0.94465 0.179784,1.89217 0.288354,2.84221 3.496152,-4.65261 6.990868,-9.30664 10.484115,-13.96142 -0.02249,0.47938 0.184267,0.88269 0.622184,1.20199 0.791486,0.57711 1.59101,1.14259 2.39882,1.69654 l -8.243425,12.02149 c 0.172289,1.05486 0.360573,2.11237 0.565341,3.1719 l 9.286771,-14.11284 c 0.304475,0.20035 0.610135,0.39879 0.91674,0.59583 0.279842,0.17985 0.560199,0.3588 0.841809,0.53589 -0.07349,-0.50804 -0.1425,-1.01574 -0.207739,-1.52239 -0.04904,-0.38082 -0.09615,-0.76103 -0.14056,-1.14102 -0.170652,-0.11146 -0.340596,-0.22338 -0.510563,-0.33589 -0.901801,-1.62822 1.347534,-3.14765 3.754293,-3.35174 0.426823,-0.0362 0.862158,-0.0317 1.29191,0.0212 4.428994,0.54456 6.269826,6.84635 6.690548,8.38037 l 0.496607,-1.01234 c -0.510712,-3.47959 -2.616977,-7.69306 -5.372278,-9.39943 h -5.17e-4 c -0.43957,-0.27223 -0.917565,-0.47657 -1.415934,-0.6196 -2.306751,-0.66199 -5.214286,-0.0308 -6.337598,1.63297 -0.761387,1.12756 -0.47446,2.42594 -0.275952,3.56309 -1.104726,-0.75404 -2.193981,-1.53052 -3.267501,-2.32854 -0.393177,-0.29227 -0.157262,-1.0984 0.710034,-2.40863 -0.05948,-0.43316 -0.115974,-0.8657 -0.168982,-1.2976 -0.815662,1.07268 -1.630862,2.14573 -2.445845,3.21893 -0.611963,0.80801 -1.225393,1.80509 -1.79679,3.00601 0.482687,-1.58404 1.29618,-4.33552 -0.345715,-5.69319 -0.589171,-0.48718 -1.172578,-0.98097 -1.750281,-1.48156 -3.578,-3.10015 -6.935752,-6.45772 -10.03608,-10.03557 -0.07423,-0.0857 -0.148269,-0.17142 -0.222208,-0.25734 z m 151.9375,2.20245 c -1.10903,-0.0507 -2.19984,0.30909 -2.89027,1.05523 -1.2805,1.38383 -1.2765,3.47167 0.12144,4.855 1.76674,1.74827 4.20604,1.30498 5.52318,-0.12816 1.01499,-1.10437 1.10251,-2.50199 0.66094,-3.58789 -0.19612,-0.48224 -0.49545,-0.90419 -0.86196,-1.21957 -0.42677,-0.36723 -0.92769,-0.62682 -1.45263,-0.786 -0.35952,-0.10899 -0.73103,-0.17173 -1.1007,-0.18861 z m -0.0961,1.17047 c 0.21629,-0.0186 0.43525,0.0704 0.65836,0.26871 0.71059,0.6316 0.7007,3.13588 -0.0868,3.97237 -0.4024,0.42742 -0.79732,0.45342 -1.17977,0.0873 -0.70475,-0.67458 -0.70442,-3.20814 -0.032,-3.95066 0.21077,-0.23276 0.42397,-0.35917 0.64027,-0.37775 z m -12.04836,3.20549 11.02206,12.23129 c -0.65137,-0.18591 -1.94506,-0.40917 -3.26698,-0.42943 -0.92106,-0.0141 -1.87119,0.07 -2.66082,0.34726 0.58471,-0.78541 0.86643,-1.599 0.90279,-2.37608 0.10019,-2.14047 -1.6414,-3.96306 -3.96462,-4.57543 -0.94542,-0.24918 -1.99263,-0.30145 -3.07423,-0.0971 -0.019,3.23987 -0.23042,3.80417 -0.58394,4.07934 -0.78726,-1.09085 -1.99897,-0.89249 -2.65979,-0.26459 -1.35733,1.28973 -0.19779,3.66487 1.55391,3.75688 2.96594,0.15578 4.13626,-3.5586 4.86224,-5.82083 0.0974,-0.30355 0.51781,-0.12449 0.83457,0.24494 0.90568,1.0563 0.15703,4.29987 -2.54971,6.36551 -0.25924,0.19783 -0.63566,0.37963 -1.38648,0.83509 1.61711,0.43841 3.25605,0.84144 4.91546,1.20871 1.44005,-0.98926 3.19841,-1.90823 5.11545,-2.1978 1.53124,-0.23127 3.19571,-0.0667 4.91081,0.80925 -1.5024,-0.33336 -2.6087,0.0522 -3.58841,0.71676 -1.79502,1.21772 -3.22254,3.43027 -5.5392,3.62406 -1.64343,0.0338 -2.30459,-1.44307 -2.53938,-2.18643 -0.35645,-0.0203 -0.71219,-0.0422 -1.06712,-0.0661 0.62158,2.32945 2.28458,4.10929 4.31499,4.33875 2.8062,0.31691 4.75988,-2.1895 6.35981,-3.94549 1.24163,-1.3627 2.30832,-2.29897 3.63854,-1.18753 0.54088,-0.002 1.08327,-0.009 1.62678,-0.0196 l -12.26954,-13.0638 c 0.27226,0.0169 0.54524,-0.10375 0.81649,-0.36277 0.29369,-0.28044 0.58561,-0.5625 0.87591,-0.84646 -0.89561,-0.0817 -1.78618,-0.17533 -2.67167,-0.2806 -0.50437,0.47662 -1.30888,0.22591 -2.39933,-0.75137 -0.51121,-0.0245 -1.02071,-0.0534 -1.52859,-0.0863 z m -4.02818,0.91674 c -2.63933,-0.0499 -5.39368,0.49807 -7.21558,1.8035 -1.43101,1.02536 -2.33774,2.82575 -2.55333,4.54753 -0.13753,1.09846 0.007,2.17897 0.51779,2.99517 0.56749,0.82984 1.41997,1.15576 2.30477,1.39681 0.2931,0.0798 0.58878,0.1501 0.87644,0.22686 -0.17163,0.1118 -0.34395,0.22309 -0.51625,0.33383 -1.02939,0.66156 -2.07108,1.30382 -3.12436,1.92701 0.84052,0.29813 1.68899,0.5861 2.54455,0.86352 0.56699,-0.34881 1.13036,-0.70311 1.69033,-1.06299 0.11463,-0.0737 0.22932,-0.14756 0.34365,-0.22169 l 7.92975,12.23026 c 1.04021,0.2469 2.08915,0.4799 3.14606,0.69867 l -9.46092,-13.99812 c 0.57822,-0.39079 1.15231,-0.78745 1.72238,-1.1901 -0.87146,-0.2226 -1.73593,-0.4565 -2.59364,-0.70074 -0.16867,0.11483 -0.33758,0.22935 -0.50695,0.34314 -2.90733,0.34917 -2.59776,-5.36715 0.15555,-7.40472 1.96754,-1.45607 4.60051,-1.92705 8.12973,-1.58957 0.2901,0.0277 0.58611,0.0612 0.88832,0.0997 l -0.74311,-0.84698 c -0.31484,-0.08 -0.64014,-0.14905 -0.97306,-0.20774 -0.81547,-0.14374 -1.68234,-0.22674 -2.56212,-0.24339 z m 23.12262,0.79943 c -1.15069,-0.003 -2.30276,0.42442 -3.05718,1.23972 -1.39844,1.51129 -1.49047,3.69592 -0.0925,5.07927 1.76717,1.74871 4.33051,1.17842 5.75882,-0.37568 1.10166,-1.19868 1.25186,-2.66844 0.84078,-3.78944 -0.18253,-0.4979 -0.4748,-0.92797 -0.84129,-1.24333 -0.4268,-0.36726 -0.93454,-0.61831 -1.47278,-0.76223 -0.36852,-0.0986 -0.75229,-0.14721 -1.13585,-0.14831 z m -153.71775,0.14159 c 0.609334,0.58365 1.225841,1.15982 1.849499,1.72806 1.050195,0.95689 1.452185,1.77937 1.176156,2.50941 -0.06322,0.16721 -0.162148,0.32917 -0.297139,0.48524 -0.156573,0.18103 -0.319798,0.32223 -0.49041,0.42375 -0.631042,0.37549 -1.367105,0.20393 -2.186946,-0.53433 -1.416331,-1.27541 -0.830651,-3.21489 -0.05116,-4.61213 z m 153.5653,1.09244 c 0.22577,-0.0292 0.44969,0.0544 0.67283,0.2527 0.71128,0.6322 0.58908,3.25986 -0.26562,4.16771 -0.43747,0.46468 -0.85006,0.50919 -1.23248,0.14314 -0.70408,-0.67395 -0.59268,-3.3268 0.14211,-4.13825 0.22988,-0.25386 0.45739,-0.39608 0.68316,-0.4253 z M 92.720955,229.56635 c -1.89389,0.13917 -3.769971,0.95573 -4.463293,2.08359 -0.497906,0.80997 -0.158012,1.84609 0.444417,2.20452 0.290156,0.17263 1.933686,0.19117 2.260327,0.31884 0.620565,0.24251 0.683349,0.83829 0.296623,1.53428 -0.404825,0.72855 -1.544035,1.36441 -3.443717,1.81591 0.834383,0.89333 1.687592,1.77635 2.56005,2.6479 2.842053,-1.15273 5.454364,-2.07289 7.88169,-2.73524 0.286285,0.89589 0.366267,1.76947 0.220658,2.62 -0.07394,0.43191 -0.206082,0.85799 -0.398942,1.27692 -1.034454,2.24719 -2.069893,4.49413 -3.105754,6.74068 0.338456,0.91817 0.690651,1.83589 1.056783,2.7528 2.228805,-5.13587 4.457803,-10.27189 6.686413,-15.40784 0.029,0.34948 0.26275,0.62008 0.70435,0.80666 3.5595,1.50397 7.20522,2.80524 10.91251,3.89382 2.30855,0.67785 4.64163,1.27323 6.99286,1.78542 -0.42419,-0.79315 -0.83609,-1.58879 -1.23507,-2.38641 -1.73847,-0.41019 -3.46549,-0.86681 -5.17901,-1.36995 -3.82762,-1.1239 -7.58916,-2.47917 -11.25461,-4.05453 -0.60005,-0.25789 -0.6085,-1.12105 -0.0284,-2.57917 -0.16727,-0.41239 -0.33108,-0.8249 -0.49145,-1.23765 -0.79898,1.78387 -1.59741,3.56824 -2.3952,5.35265 -0.48774,1.0879 -0.834737,2.21711 -1.008206,3.39772 0.01672,-0.54866 0.0076,-1.10423 -0.02997,-1.65675 -0.203128,-2.98519 -1.223268,-5.85455 -3.806486,-7.24451 -0.897804,-0.48309 -2.040216,-0.64316 -3.176551,-0.55966 z m 1.628325,2.82257 c 0.279111,0.009 0.545998,0.0428 0.797884,0.10335 0.198606,0.0477 0.37941,0.11066 0.544669,0.18603 0.16525,0.0754 0.315049,0.16291 0.450619,0.2589 0.811939,0.57189 1.131974,1.45085 1.25367,1.80248 -2.319278,0.61608 -4.044366,1.11342 -5.227071,1.61954 0.375207,-0.2878 1.103267,-2.50875 -0.615466,-3.48816 1.008048,-0.32211 1.95836,-0.51032 2.795695,-0.48214 z m 88.51398,1.16478 c -0.23949,-0.006 -0.49149,0.0401 -0.73691,0.14573 -0.72612,0.3126 -1.25107,1.43918 -0.69143,2.59209 0.72171,1.48734 2.85068,1.46541 4.89893,1.43867 1.7801,-0.0232 3.49251,-0.0463 4.069,1.12138 0.59336,1.20184 0.0247,2.25616 -1.7756,3.08508 -0.10001,0.0461 -0.20416,0.09 -0.31213,0.13178 -1.80107,0.69622 -4.53944,0.75611 -6.74791,0.16278 1.13247,1.37315 2.288,2.73256 3.46646,4.07779 1.37132,-0.28622 3.17034,-0.33332 5.1077,-0.24133 3.07271,0.14589 6.86885,0.66639 9.5622,1.35805 -0.44935,-0.52224 -0.89679,-1.04589 -1.34203,-1.57096 -2.67521,-0.7697 -5.3756,-1.4825 -8.10959,-1.78645 2.08669,-1.4898 2.44482,-3.47125 1.22732,-5.86631 -1.21598,-2.39207 -3.4201,-3.45838 -6.50451,-3.44785 -0.2513,8.6e-4 -0.50877,0.008 -0.77257,0.0232 -0.0105,-0.72378 -0.62047,-1.20611 -1.33893,-1.2237 z m -77.68777,4.17856 c -1.31439,8.89557 0.60408,14.43658 5.15628,16.01349 0.12311,0.0426 0.24791,0.0826 0.37465,0.11937 4.10169,1.18917 6.6231,-1.66666 7.21868,-4.83639 0.6051,-3.22042 -0.61776,-6.80921 -3.91862,-7.79798 l -0.03,-0.009 c -2.25137,-0.66182 -4.124,0.47919 -4.77439,2.42517 -0.65342,1.95503 0.41319,3.59586 1.87689,4.04007 0.35129,0.10661 0.68317,0.14971 0.99064,0.14056 2.20728,-0.0657 3.07977,-2.73432 1.9513,-4.00596 2.10813,-0.34762 2.9728,1.65341 2.55591,3.63957 -0.40819,1.94473 -2.14407,3.89066 -5.27668,2.98742 -0.0109,-0.003 -0.0222,-0.007 -0.0331,-0.01 -4.17867,-1.22842 -5.5759,-5.16056 -5.38675,-11.64684 -0.23797,-0.35254 -0.47279,-0.70585 -0.70487,-1.05988 z m 64.27153,1.28209 c -0.13612,0.001 -0.26835,0.0184 -0.39119,0.0517 -1.19715,0.32445 -1.57552,1.41937 -1.3131,2.46496 0.16907,0.67364 0.60178,1.13503 1.24747,1.56218 0.87905,0.61207 2.31784,1.0169 3.84835,1.44591 2.83103,0.79352 6.04858,1.65901 5.73866,4.58422 -0.99121,-0.2038 -1.9801,-0.1511 -2.98586,0.15709 -0.42499,0.13023 -0.82877,0.31692 -1.20044,0.54519 -1.44777,0.88912 -2.44541,2.43449 -2.11719,3.67419 0.3137,1.18482 1.96182,1.92535 3.65094,1.5503 0.0939,-0.0209 0.18787,-0.0456 0.28164,-0.0734 4.31992,-1.2802 4.81751,-5.67883 3.84628,-8.3969 -1.01403,-2.83783 -3.27148,-4.44459 -8.17728,-5.32112 -0.19128,-0.0342 -0.38668,-0.067 -0.58601,-0.0992 0.27137,-1.38692 -0.88943,-2.15357 -1.84227,-2.14509 z m -26.28573,2.76521 c -0.0743,1.5e-4 -0.14959,0.008 -0.2248,0.0217 -0.72787,0.13716 -1.48608,0.92859 -1.43092,2.08928 0.0413,0.87226 0.61306,1.5169 1.43092,2.0469 2.04747,1.32687 5.70057,1.88428 5.80637,3.83491 0.0726,1.33838 -0.86515,2.08361 -2.84634,2.13734 -0.86269,0.0234 -1.90244,-0.17371 -2.96003,-0.5395 -1.30214,-0.45038 -2.60236,-1.14556 -3.64628,-1.96733 0.50079,1.708 1.02822,3.41246 1.58233,5.11287 0.63462,0.12775 1.32924,0.3374 2.06395,0.60823 3.2722,1.20622 8.09919,3.97223 10.9828,6.19084 -0.2076,-0.65693 -0.41275,-1.31458 -0.61547,-1.97249 -2.15654,-1.76028 -4.3588,-3.47812 -6.75256,-4.8333 2.50444,-0.54857 3.61333,-2.22883 3.43648,-4.90977 -0.19115,-2.89789 -2.05012,-4.81602 -5.34282,-6.01204 0.36682,-0.89273 -0.41494,-1.80984 -1.48363,-1.80764 z m -13.91492,0.3824 c -0.21256,0.0105 -0.42047,0.0401 -0.62218,0.0873 -1.30058,0.30492 -2.37455,1.36432 -2.61948,2.8453 -0.28357,1.71464 0.48885,3.07424 1.65985,3.83026 0.49991,0.32275 1.06634,0.53016 1.63763,0.60306 2.16356,0.2761 3.65888,-1.38246 3.80648,-2.94297 0.19811,-2.09451 -1.39893,-4.1584 -3.21272,-4.39612 -0.22005,-0.0288 -0.43701,-0.0374 -0.64958,-0.0269 z m 30.82655,1.17202 c -0.42933,-0.0286 -0.86313,-0.0117 -1.29553,0.0563 -0.46164,0.0726 -0.90069,0.18835 -1.31465,0.34262 -2.47983,0.92414 -4.18113,3.32993 -3.8933,6.23424 0.27584,2.78336 2.6085,4.81591 5.5485,5.2803 0.83054,0.13118 1.69714,0.13291 2.55436,-0.01 3.25165,-0.5414 5.55799,-3.13819 4.81883,-6.46679 -0.62235,-2.80258 -3.4129,-5.23669 -6.41821,-5.43688 z m -29.33413,0.89762 c 0.62356,0.0749 0.90546,0.40346 0.83974,0.99684 -0.10465,0.94494 -2.15409,2.38429 -3.29179,2.22519 -0.15489,-0.0217 -0.28626,-0.0595 -0.39429,-0.11317 -0.29698,-0.14762 -0.41564,-0.41464 -0.35863,-0.79892 0.0456,-0.30723 0.28342,-0.6605 0.6165,-0.99735 0.72157,-0.72975 1.89716,-1.39562 2.58847,-1.31259 z m 30.17645,0.709 c 0.59344,2.2e-4 1.14748,0.16957 1.60301,0.48886 1.88842,1.10191 1.67983,4.15741 0.43253,6.08749 -1.03197,1.59696 -2.57102,2.45946 -4.03076,2.35283 -0.56193,-0.041 -1.10842,-0.22572 -1.60611,-0.56534 -2.13794,-1.58646 -1.11987,-4.52808 -0.0966,-6.0353 0.20405,-0.30058 0.41758,-0.56957 0.63768,-0.80821 0.66564,-0.72171 1.39293,-1.16852 2.10323,-1.37822 0.11819,-0.0349 0.23549,-0.0634 0.35244,-0.0853 0.20433,-0.0383 0.4068,-0.0569 0.60461,-0.0568 z m -32.92874,6.37739 c -0.23166,0.008 -0.45819,0.0348 -0.67747,0.0796 -1.4148,0.28879 -2.56724,1.33395 -2.81224,2.81534 -0.2835,1.71425 0.5742,3.08858 1.8526,3.85971 0.54612,0.32941 1.16248,0.54353 1.78284,0.6227 2.34716,0.29953 3.95865,-1.3493 4.10621,-2.90938 0.19809,-2.09425 -1.55919,-4.17327 -3.54345,-4.43332 -0.24034,-0.0315 -0.47682,-0.0425 -0.70849,-0.0346 z m 1.65055,2.0898 c 0.68005,0.0817 0.99022,0.4132 0.92449,1.00665 -0.10475,0.94585 -2.31982,2.36482 -3.55482,2.19212 -0.16845,-0.0236 -0.312,-0.0632 -0.42995,-0.11834 -0.32426,-0.15153 -0.45646,-0.42035 -0.39946,-0.8046 0.0456,-0.30725 0.2999,-0.65838 0.65784,-0.99167 0.77512,-0.72175 2.04784,-1.37473 2.8019,-1.28416 z" /></g><g
         id="g147"><path
           id="path146"
           style="opacity:1;vector-effect:none;fill:#e8181f;fill-rule:evenodd;stroke-width:0.294385;stop-color:#000000;stop-opacity:1"
           d="m 218.70766,142.70395 a 75.770912,75.770912 0 0 1 -75.77091,75.77091 75.770912,75.770912 0 0 1 -75.77091,-75.77091 75.770912,75.770912 0 0 1 75.77091,-75.770913 75.770912,75.770912 0 0 1 75.77091,75.770913 z" /><g
           id="g146"
           transform="translate(-2.680664e-6,-1.0583333)"><path
             id="path133"
             style="display:inline;vector-effect:none;fill:#ffcb03;fill-opacity:1;fill-rule:evenodd;stroke-width:0.551071;stop-color:#000000"
             d="m 142.93649,71.274202 -2.0376,5.544882 -2.55591,-5.325773 -1.50069,5.712829 -3.05097,-5.059639 -0.95033,5.829618 -3.51865,-4.74648 -0.39119,5.893697 -3.9548,-4.391463 0.17157,5.904032 -4.35478,-3.995622 0.73278,5.860624 -4.71548,-3.564123 1.28726,5.764506 -5.03328,-3.100069 1.82986,5.616711 -5.3051,-2.608109 2.35592,5.41724 -5.52989,-2.093412 2.86081,5.16971 -5.70353,-1.558561 3.33985,4.874121 -5.826,-1.009758 3.7884,4.535124 -5.895769,-0.452169 4.203359,4.154782 -5.912298,0.10956 4.579048,3.73672 -5.874576,0.67076 4.913916,3.28455 -5.784148,1.22577 5.204338,2.80345 -5.64152,1.7694 5.44773,2.2965 -5.44773,2.2965 5.64152,1.76992 -5.204338,2.80293 5.784658,1.22576 -4.914426,3.28507 5.874576,0.67076 -4.579048,3.73672 5.912298,0.10956 -4.203359,4.15478 5.896279,-0.45217 -3.78891,4.53513 5.826,-1.00976 -3.33985,4.87412 5.70353,-1.55856 -2.86081,5.16919 5.52989,-2.09341 -2.35592,5.41776 5.3051,-2.60811 -1.82986,5.61671 5.03328,-3.10058 -1.28726,5.76502 4.71548,-3.56413 -0.73278,5.86063 4.35478,-3.99562 -0.17157,5.90403 3.9548,-4.39146 0.39119,5.89369 3.51865,-4.74648 0.95033,5.82962 3.05097,-5.05912 1.50069,5.71231 2.55591,-5.32629 2.0376,5.5454 2.03761,-5.5454 2.55591,5.32629 1.50069,-5.71283 3.05149,5.05964 0.95033,-5.82962 3.51865,4.74648 0.39119,-5.89369 3.9548,4.39146 -0.17157,-5.90403 4.35477,3.99562 -0.73277,-5.86063 4.71548,3.56413 -1.28726,-5.76502 5.03328,3.10058 -1.82986,-5.61671 5.3051,2.60811 -2.35593,-5.41776 5.52938,2.09341 -2.86081,-5.16919 5.70353,1.55856 -3.33985,-4.87412 5.82652,1.00976 -3.78892,-4.53513 5.89629,0.45217 -4.20337,-4.15478 5.9123,-0.10956 -4.57904,-3.73672 5.87457,-0.67076 -4.91443,-3.28507 5.78466,-1.22576 -5.20433,-2.80345 5.64152,-1.7694 -5.44773,-2.2965 5.44773,-2.2965 -5.64152,-1.7694 5.20433,-2.80345 -5.78414,-1.22577 4.91391,-3.28455 -5.87457,-0.67076 4.57904,-3.73672 -5.9123,-0.10956 4.20337,-4.154782 -5.89577,0.452169 3.7884,-4.535124 -5.82652,1.009758 3.33985,-4.874121 -5.70353,1.558561 2.86081,-5.16971 -5.52938,2.093412 2.35593,-5.41724 -5.3051,2.608109 1.82986,-5.616711 -5.03328,3.100069 1.28726,-5.764506 -4.71548,3.564123 0.73277,-5.860624 -4.35477,3.995622 0.17157,-5.904032 -3.9548,4.391463 -0.39119,-5.893697 -3.51865,4.74648 -0.95033,-5.829618 -3.05149,5.059639 -1.50069,-5.712829 -2.55591,5.325773 z" /><path
             id="rect133"
             style="font-variation-settings:normal;opacity:1;vector-effect:none;fill:#1e1713;fill-opacity:1;fill-rule:evenodd;stroke-width:0.272744;stroke-linecap:butt;stroke-linejoin:miter;stroke-miterlimit:4;stroke-dasharray:none;stroke-dashoffset:0;stroke-opacity:1;-inkscape-stroke:none;stop-color:#000000;stop-opacity:1"
             d="m 138.33294,81.947329 -1.44073,2.889938 c -0.19381,0.388767 -0.74146,0.746103 -1.22225,0.804361 -0.72446,0.08778 -1.44785,0.187009 -2.1688,0.304192 -2.69414,0.437873 -5.35706,1.051951 -7.9375,1.820559 -3.3664,1.00271 -6.59127,2.26868 -9.55291,3.769277 -2.40641,1.219307 -4.64092,2.592828 -6.63577,4.116545 -0.56075,0.428287 -0.50704,1.082327 0.10232,1.438154 l 1.72858,1.009237 c 1.82688,1.06699 3.15255,2.818818 3.68298,4.866898 l 8.58966,33.16129 c 0.25688,0.99171 -0.37444,1.73381 -1.34979,1.42575 -1.09504,-0.34587 -1.88232,-0.86581 -2.57866,-1.4888 -0.95545,-0.8548 -1.8153,-2.05371 -2.68563,-3.53467 -0.12315,-0.20956 -0.39195,-0.28334 -0.60305,-0.16278 l -2.41485,1.37925 c -1.37309,0.78418 -1.87618,2.55239 -0.97255,3.84937 0.73663,1.05728 1.58382,2.07977 2.61742,3.00447 1.37013,1.22581 3.0868,2.23216 5.10511,2.83445 0.41303,0.12326 0.58685,0.51136 0.43977,0.91623 -0.23013,0.63334 -0.35061,1.30356 -0.35399,1.98127 1e-5,3.25129 2.63572,5.88699 5.88698,5.88698 3.25128,0 5.88699,-2.63569 5.88698,-5.88698 -3e-4,-0.44758 -0.0516,-0.89264 -0.15245,-1.32705 -0.0945,-0.40692 0.11357,-0.6521 0.5147,-0.53485 0.8102,0.23686 1.53405,0.54198 2.18282,0.8971 0.086,0.0471 0.17032,0.0947 0.25321,0.14315 2.4257,1.41718 1.82513,4.92317 -0.25994,6.7448 l -0.44235,0.38654 c -0.61145,0.53432 -0.61145,1.40045 1e-5,1.93477 l 4.44676,3.88452 c 2.17474,1.89989 5.70074,1.89989 7.87549,0 l 4.44675,-3.88452 c 0.61145,-0.53432 0.61145,-1.40045 0,-1.93477 l -0.44235,-0.38654 c -2.08507,-1.82163 -2.6859,-5.32759 -0.25993,-6.7448 0.0828,-0.0484 0.16729,-0.0961 0.25321,-0.14315 0.64876,-0.35513 1.37261,-0.66025 2.18281,-0.8971 0.40118,-0.11728 0.6092,0.12792 0.5147,0.53485 -0.10089,0.4344 -0.15214,0.87947 -0.15245,1.32705 1e-5,3.25129 2.63571,5.88697 5.88699,5.88698 3.25128,0 5.88698,-2.63568 5.88697,-5.88698 -0.003,-0.6777 -0.12386,-1.34792 -0.35398,-1.98127 -0.14711,-0.40488 0.0267,-0.79298 0.43977,-0.91623 2.01829,-0.6023 3.73496,-1.60863 5.10511,-2.83445 1.03362,-0.92467 1.88078,-1.94719 2.61741,-3.00447 0.90363,-1.29697 0.40056,-3.06519 -0.97255,-3.84938 l -2.41484,-1.37924 c -0.21111,-0.12056 -0.4799,-0.0468 -0.60306,0.16278 -0.87032,1.48096 -1.73016,2.67988 -2.68563,3.53467 -0.69629,0.62302 -1.48363,1.14292 -2.57865,1.4888 -0.97536,0.30805 -1.60667,-0.43403 -1.34979,-1.42575 l 8.58966,-33.16129 c 0.53043,-2.04809 1.8561,-3.799918 3.68298,-4.866888 l 1.72858,-1.009243 c 0.60935,-0.35583 0.66305,-1.009851 0.10231,-1.438157 -1.99484,-1.523718 -4.22934,-2.897237 -6.63577,-4.116547 -2.96161,-1.500592 -6.18651,-2.76656 -9.55291,-3.769279 -2.58042,-0.768591 -5.24336,-1.382677 -7.93749,-1.820558 -0.72096,-0.117179 -1.44436,-0.216403 -2.16882,-0.30419 -0.48078,-0.05826 -1.02843,-0.415596 -1.22224,-0.804363 l -1.44072,-2.88994 a 1.1988587,1.0473178 0 0 0 -1.09915,-0.629134 l -7.00935,4e-6 a 1.1988608,1.0473196 0 0 0 -1.09914,0.629134 z m 0.31364,10.157777 v 47.778884 c 0,0.32715 -0.24069,0.43043 -0.54883,0.24453 -0.0571,-0.0344 -0.11511,-0.0681 -0.17464,-0.10072 -1.71162,-0.93694 -3.71122,-1.63095 -5.96294,-1.95906 -0.23846,-0.0347 -0.48019,-0.0649 -0.7245,-0.091 -0.23527,-0.0251 -0.46585,-0.22894 -0.51471,-0.46044 l -8.25892,-39.138178 c -0.3315,-1.570982 0.59823,-3.354377 2.11098,-3.891756 0.89287,-0.31717 1.80322,-0.614198 2.72697,-0.889349 2.32979,-0.693966 4.74456,-1.248855 7.17785,-1.644347 1.13455,-0.184402 2.27325,-0.333004 3.40933,-0.445704 0.41905,-0.04157 0.75941,0.228652 0.75941,0.59709 z m 9.33977,-0.59709 c 1.13608,0.112704 2.27479,0.261306 3.40932,0.445705 2.43331,0.395498 4.84805,0.950377 7.17786,1.644345 0.92376,0.275148 1.8341,0.572181 2.72697,0.889352 1.51273,0.537369 2.44248,2.320752 2.11098,3.891754 l -8.25893,39.138188 c -0.0488,0.23149 -0.27928,0.43546 -0.5147,0.46043 -0.24432,0.0261 -0.48604,0.0563 -0.7245,0.091 -2.25173,0.3281 -4.25133,1.02212 -5.96294,1.95906 -0.0595,0.0326 -0.11756,0.0663 -0.17465,0.10066 -0.30812,0.18565 -0.54883,0.0822 -0.54883,-0.24499 V 92.105152 c 0,-0.368438 0.34037,-0.638658 0.75942,-0.597086 z m -5.07336,52.757764 h 0.0475 c -0.007,0.009 -0.0164,0.0185 -0.0238,0.0279 -0.007,-0.009 -0.0164,-0.0185 -0.0238,-0.0279 z" /><path
             id="rect142"
             style="font-variation-settings:normal;opacity:1;vector-effect:none;fill:#ffcb03;fill-opacity:1;fill-rule:evenodd;stroke-width:0.264583;stroke-linecap:butt;stroke-linejoin:miter;stroke-miterlimit:4;stroke-dasharray:none;stroke-dashoffset:0;stroke-opacity:1;-inkscape-stroke:none;stop-color:#000000;stop-opacity:1"
             d="m 121.73702,167.81353 v 4.69635 h 18.05781 v 4.63021 H 96.899251 v 6.28385 h 92.075009 v -6.28385 h -42.89557 v -4.63021 h 18.05781 v -4.69635 z m -24.83777,25.44805 v 6.28386 h 42.89558 v 14.05909 h 6.28386 v -14.05909 h 42.89557 v -6.28386 z" /></g></g></g><path
       id="path53"
       style="font-weight:bold;font-size:34.0583px;line-height:1.25;font-family:'Ruposhi Bangla Pr UNI';-inkscape-font-specification:'Ruposhi Bangla Pr UNI Bold';fill:#ffffff;stroke-width:0.429094"
       d="m 86.786867,146.46791 c -1.803775,-6e-5 -3.541061,1.39052 -3.507667,2.66025 0.01984,0.69996 0.582611,1.17154 1.030224,1.59667 h -2.249538 c -0.274757,0 -0.440735,-0.40635 -0.497935,-1.21882 l -0.532057,-0.48097 0.01653,2.09457 c 0.0066,0.52633 0.07406,1.12677 0.222847,1.80189 -0.310135,-0.79938 -0.886001,-2.19667 -2.094602,-2.19667 h -9.440407 l 0.96122,1.06435 h 2.797763 c -0.236073,1.65505 -0.816304,2.0248 -0.943796,2.0248 -0.217558,0 -0.463682,-0.16565 -0.738307,-0.49767 l -0.377089,0.25823 c 0.359268,0.71856 1.103394,1.32085 1.784964,1.32085 0.832372,0 1.286597,-1.48577 1.425034,-2.40292 0.16664,1.00251 0.484942,1.87506 1.372695,2.36932 -1.364826,0.24401 -2.265441,1.01204 -2.265441,1.78444 0,0.60648 0.360392,0.91017 1.081307,0.91017 0.947896,0 1.640972,-0.85357 1.716456,-1.68207 1.313511,-0.60086 1.929318,0.25227 1.26957,1.13232 -0.631975,0.84309 -1.927434,1.35603 -2.935009,1.35603 -0.492017,0 -1.224009,-0.26847 -2.196669,-0.80628 l 1.303956,2.48839 c 2.380105,0.286 4.60091,1.41931 6.660631,3.39852 l -0.240702,-0.90941 c -1.792832,-2.00936 -3.444285,-2.88931 -3.758983,-2.96936 1.449237,-0.28997 2.231055,-1.36459 2.231055,-2.55789 0,-0.44602 -0.06183,-1.42754 -1.21852,-1.95629 1.651585,-0.28633 1.559933,-2.34529 0.65211,-3.26105 h 1.18493 c 1.004699,0 1.458362,1.49116 1.458362,2.33418 v 5.321 l 0.927132,1.0813 0.01653,-9.04586 c 0.148786,0.20599 0.371534,0.30948 0.669039,0.30948 h 1.614124 v 7.55232 l 1.064346,1.20083 v -8.75315 h 1.148988 l -0.96046,-1.06435 h -0.342701 c -1.081175,-0.52045 -0.153084,-2.23033 1.407081,-2.8665 2.520789,-1.02794 5.188849,1.5155 5.767089,2.11127 v -0.58414 c -1.16122,-1.52174 -3.44022,-2.91748 -5.48608,-2.91755 z m -100.911784,6.6e-4 c -1.776598,0 -3.501419,1.37729 -3.501419,2.66052 0.03306,0.69152 0.582247,1.13656 1.029728,1.59614 h -2.402952 l 0.961221,1.06408 h 1.321678 v 7.55205 l 1.064081,1.20163 v -8.75368 h 1.184431 c 0.167963,0.31311 0.353019,0.57352 0.686464,0.72085 0.694993,0.25591 1.489541,3.3e-4 2.145387,0.56644 0.641464,0.55365 0.413823,1.20086 0.377618,1.25291 -0.419178,0.60248 -1.277406,1.66487 -1.527399,1.66487 -0.240371,0 -0.440603,-0.30319 -0.600796,-0.90964 l -0.54925,0.5151 c 0.617923,1.36168 1.28154,2.04252 1.990949,2.04252 0.918932,0 2.0163093,-2.83211 2.9865561,-2.83211 0.3236912,0 0.5856859,0.23144 0.7896212,0.67813 v 3.6996 l 0.995342,1.06306 v -8.46173 h 2.3000586 v 7.55205 l 1.0641139,1.20163 v -8.75368 h 2.2997945 v 5.13194 c 0,0.69857 0.97854538,2.30006 1.7852274,2.30006 1.4451696,0 3.4326466,-2.31292 3.4326466,-4.11938 0,-1.53004 -0.959402,-1.90501 -1.578945,-1.90501 -0.782942,0 -1.3216446,0.56502 -1.3216446,1.23571 0,1.00265 0.8481766,1.29966 1.3388376,1.11566 -0.142834,0.98777 -0.914006,1.85271 -1.7680336,2.33418 -0.33030402,0.1759 -0.75523602,0.28699 -0.75523602,-0.30881 v -5.78429 H 4.6350523 l -0.961221,-1.06411 h -0.308812 c -0.02645,-0.28831 -0.07704,-0.54945 -0.154407,-0.78466 v -0.55418 c -1.15107,-1.50832 -3.42702562,-2.91781 -5.492367,-2.91781 -1.7764327,0 -3.5013857,1.37722 -3.5013857,2.66051 0.033063,0.69156 0.5822472,1.13656 1.0296948,1.59614 H -15.806921 c -1.432738,-0.67595 0.381387,-3.08942 2.540199,-3.08942 1.578978,0 3.123834,0.77802 4.634273,2.33418 v -0.5836 c -1.1539804,-1.51209 -3.430631,-2.91781 -5.492369,-2.91781 z m 50.190112,0 -4.706118,2.93498 h 0.568757 l 0.01653,2.66078 c 0.0033,0.61789 0.08563,1.22434 0.257233,1.81932 -1.075025,-2.28188 -2.442198,-3.26105 -4.01625,-3.26105 -1.576564,0 -3.209501,1.55454 -3.209501,2.66025 0,0.49142 0.440405,0.8581 0.806549,0.8581 0.178212,0 0.972165,-0.4461 1.11566,-0.4461 0.354705,0 0.532057,0.20599 0.532057,0.61799 0,0.43479 -0.360424,1.001 -1.081307,1.699 l 1.784963,0.54925 c 0.984035,-1.22437 1.985394,-2.25989 3.003748,-3.10661 0.514897,0.53778 0.772429,1.16145 0.772429,1.8709 l -0.01653,3.84465 0.995342,1.08074 v -8.7013 c 0.09159,0.16035 0.268806,0.24037 0.532057,0.24004 1.640343,-0.002 1.78493,1.72548 1.78493,2.33418 v 5.32073 l 0.926867,1.08131 0.01653,-9.04533 c 0.148786,0.20598 0.371766,0.30881 0.66927,0.30881 h 2.900888 c -3.127637,3.03367 -1.714009,8.32448 1.390153,8.32448 1.921713,0 1.875292,-2.48862 0.394777,-2.48862 -1.00288,0 -1.283556,1.05059 -0.686463,1.64772 -3.429837,-1.18311 -0.681735,-7.48358 2.025334,-7.48358 h 5.183489 v 0.56644 c -0.881075,0.08 -2.420145,0.92677 -4.617079,2.54017 l 1.287292,1.61359 c 1.899396,0 3.468422,1.67404 3.981897,3.26105 l 0.46355,0.37762 v -8.35884 h 1.89146 c 0.788332,0 1.26795,0.32039 1.438062,0.94403 -1.033398,0.43177 -1.630789,1.33897 -1.630789,1.95683 0,0.85581 0.627611,1.30395 1.390417,1.30395 0.640803,0 1.127133,-0.42906 1.321679,-1.28729 0.23475,0.85462 0.685273,1.28729 1.37944,1.28729 0.853599,0 1.298236,-0.53354 1.298236,-1.30395 0,-0.5721 -0.475056,-1.16734 -1.42477,-1.7852 0.285999,-0.42338 0.57203,-0.63518 0.858095,-0.63518 0.509806,0 1.42477,1.0489 1.42477,1.99121 v 4.90873 l 0.995607,1.08105 0.01653,-8.70161 c 0.09952,0.15507 0.269797,0.23839 0.508846,0.23872 l 6.203066,0.002 v 4.54028 c -0.622981,-1.82335 -1.613364,-2.75505 -2.987051,-2.75505 -2.63919,0 -2.694307,3.70714 -0.377121,3.70714 1.481308,0 1.966349,-1.94959 0.755235,-2.54043 2.334081,0 3.154286,4.45867 3.24359,4.96081 l 0.497671,0.48024 v -8.39292 h 1.150046 l -0.961221,-1.06438 h -7.881763 c -0.352489,0 -0.563137,-0.4087 -0.631545,-1.21829 l -0.514599,-0.481 v 2.09433 c 0,0.83532 0.113738,1.49318 0.342735,1.97376 -0.552754,-1.08197 -1.37448,-2.33418 -2.506606,-2.33418 -0.514897,0 -1.137514,0.51473 -1.869837,1.54459 -0.445298,-1.05274 -0.928686,-1.57865 -2.260217,-1.57871 l -14.508802,-6.6e-4 c -0.274757,0 -0.440471,-0.40612 -0.497671,-1.21852 l -0.532057,-0.48075 0.01653,2.09408 c 0.0033,0.52633 0.07439,1.12703 0.223178,1.80212 -0.42675,-1.29824 -1.056145,-2.19849 -2.43704,-2.19641 -0.366178,6.7e-4 -0.566212,-0.40611 -0.600532,-1.21852 l -0.118367,-0.10348 h 1.268017 l 2.922213,-2.93501 z m 116.315645,0 c -1.77657,0 -3.50139,1.37729 -3.50139,2.66052 0.0331,0.69152 0.58225,1.13656 1.02969,1.59614 h -2.40291 l 0.96122,1.06408 h 1.32164 v 7.55205 l 1.06411,1.20163 v -8.75368 h 1.15005 l -0.96125,-1.06408 h -0.34323 c -1.43274,-0.67595 0.38135,-3.08942 2.54019,-3.08942 1.57898,0 3.12384,0.77798 4.63424,2.33418 v -0.5836 c -1.15398,-1.51212 -3.43059,-2.91782 -5.49236,-2.91782 z m -153.8652697,1.16384 c 0.69578738,-0.0331 1.6349874,0.12431 2.768072,0.78727 -0.9647916,-0.19541 -3.0382,0.59894 -3.380837,-0.70366 0.175898,-0.041 0.380891,-0.0727 0.612765,-0.0837 z m -1.117478,0.24731 c 0.227146,2.24564 2.7640054,1.93259 4.439197,1.83287 1.176034,0 0.946342,1.01254 0.600829,1.01254 h -6.4020418 c -1.1627753,-0.5599 0.066457,-2.38401 1.3620158,-2.84541 z m 96.5218147,1.14535 0.0198,3.0381 c 0.003,0.61793 0.0856,1.22461 0.25723,1.81958 -0.70696,-1.68117 -2.04216,-3.26101 -4.01628,-3.26101 -1.57491,0 -3.20973,1.55329 -3.20973,2.66022 0,0.49188 0.44087,0.85813 0.80628,0.85813 0.17755,0 0.93219,-0.41978 1.11619,-0.44586 0.35087,-0.0499 0.53229,0.20565 0.53229,0.61772 0,0.43482 -0.36115,1.00179 -1.08207,1.69979 l 1.78523,0.54872 c 0.9841,-1.2244 1.98533,-2.26008 3.00375,-3.10687 0.51493,0.53781 0.7759,1.16145 0.77266,1.87089 l -0.0165,3.84518 0.99481,1.08101 9.9e-4,-8.7021 c 0.0916,0.16036 0.26815,0.2407 0.53127,0.2407 h 10.333143 l -0.96122,-1.06434 h -9.714633 c -0.36618,0 -0.56575,-0.40632 -0.60003,-1.21879 z m -125.122722,9.9e-4 0.01653,3.0381 c 0.0033,0.61789 0.08563,1.22434 0.257234,1.81935 -1.074992,-2.2819 -2.442199,-3.26104 -4.016283,-3.26104 -1.576498,0 -3.209469,1.55451 -3.209469,2.66021 0,0.49143 0.440372,0.85813 0.806517,0.85813 0.178212,0 0.972164,-0.44612 1.11566,-0.44612 0.354737,0 0.532057,0.20598 0.532057,0.61799 0,0.43475 -0.360392,1.00103 -1.081274,1.69903 l 1.784963,0.54922 c 0.983968,-1.22434 1.985427,-2.25986 3.003715,-3.10661 0.51493,0.53781 0.772428,1.16145 0.772428,1.87089 l -0.01653,3.84465 0.39167,0.42553 c 0.0066,0.25624 0.0026,0.52683 -0.01323,0.65575 -1.503857,-1.0173 -2.591744,0.16994 -2.591744,0.89248 0,1.63637 2.614856,2.05866 3.226662,0.22318 1.328687,0.94406 1.998817,1.55156 2.608937,2.14565 l -0.291619,-1.09847 c -0.946871,-0.91728 -1.906075,-1.55401 -2.248513,-1.76803 -0.0099,-0.21723 -0.04001,-0.44044 -0.08563,-0.66927 -6.7e-5,-3.3e-4 -1.66e-4,-10e-4 -2.65e-4,-0.002 v -8.42605 c 0.09159,0.16036 0.268806,0.24004 0.532057,0.24004 l 5.81867,2.6e-4 v 0.56615 c -0.881074,0.08 -2.420145,0.9268 -4.617078,2.5402 l 1.287292,1.61359 c 1.899462,0 3.468455,1.67401 3.981897,3.26105 l 0.463549,0.37762 v -8.35887 h 1.132853 l -0.961221,-1.06408 h -7.449194 c -0.366177,0 -0.566211,-0.40612 -0.600531,-1.21855 z m 189.814055,0 v 8.53047 c -0.30419,-0.50838 -1.24646,-1.67298 -2.23131,-2.04249 2.36664,-0.57855 2.24215,-3.63602 -0.12003,-4.84029 -1.1673,1.28706 -1.4204,1.45892 -1.66487,1.45892 0.0265,-0.69731 -0.56826,-1.00086 -1.07608,-0.94482 -1.05258,0.11605 -1.25443,1.47575 -0.53752,2.04329 1.20517,0.95408 2.89282,-0.15011 3.99932,-0.80655 0.14746,-0.0876 0.25723,0.12564 0.25723,0.37735 0,0.72204 -1.42506,1.73365 -3.17507,1.73365 -0.17028,0 -0.38397,-0.044 -0.84117,-0.0856 l 1.63052,2.04252 c 1.58589,0.10448 3.4746,0.70435 4.20507,2.81466 -1.20936,-1.86127 -3.28227,-0.32071 -4.75432,-1.32138 -0.65244,-0.50746 -0.47806,-1.31411 -0.34323,-1.69929 l -0.412,-0.36043 c -0.45754,1.15917 -0.30088,2.4097 0.412,3.141 1.73203,1.7762 4.99049,-0.75081 5.23506,1.28729 l 0.56641,0.56641 v -9.28571 c 0.10283,0.10316 0.25723,0.15441 0.46329,0.15441 h 0.6693 l -0.96096,-1.06408 c -0.38905,0 -0.62357,-0.37765 -0.70369,-1.13285 z m -40.77575,1.49275 c -0.45013,-6e-5 -0.95871,0.43515 -0.91513,1.09873 0.10448,1.59399 3.81,1.67444 3.81,3.1238 0,0.69804 -0.50323,1.04666 -1.51018,1.04666 -0.97901,0 -2.40516,-0.55193 -3.41628,-1.28729 l 0.87582,2.62666 c 1.81796,0.34402 4.58891,2.1431 6.1786,3.77561 l -0.20532,-1.04662 c -0.94889,-1.00735 -1.97059,-1.97022 -3.14153,-2.71206 1.24729,-0.24037 1.8709,-1.05797 1.8709,-2.45401 0,-1.49899 -0.90997,-2.57547 -2.72899,-3.22772 0.21061,-0.45822 -0.21029,-0.94366 -0.81799,-0.94376 z m 22.5533,0 c -0.45013,-6e-5 -0.95871,0.43515 -0.91513,1.09873 0.10448,1.59399 3.81003,1.67444 3.81003,3.1238 0,0.69804 -0.50326,1.04666 -1.5102,1.04666 -0.97898,0 -2.40517,-0.55193 -3.41625,-1.28729 l 0.87578,2.62666 c 1.818,0.34402 4.58895,2.1431 6.1786,3.77561 l -0.20532,-1.04662 c -0.94889,-1.00735 -1.97055,-1.97022 -3.14149,-2.71206 1.24728,-0.24037 1.87089,-1.05797 1.87089,-2.45401 0,-1.49899 -0.90997,-2.57547 -2.72899,-3.22772 0.21062,-0.45822 -0.21061,-0.94366 -0.81802,-0.94376 z m -185.803232,0.20632 -7.603634,2.6e-4 0.961221,1.06408 h 5.355121 v 0.56645 c -0.881075,0.08 -2.420179,0.9268 -4.617079,2.54016 l 1.287292,1.6136 c 1.899429,0 3.468422,1.67403 3.981897,3.26104 l 0.463549,0.37762 v -8.3591 h 1.132853 z m 68.861006,0 -16.1682217,2.6e-4 0.960989,1.06408 h 5.4754377 v 0.61799 c -1.12138,0.14879 -2.700622,0.96701 -4.7373957,2.45453 l 1.3560297,1.68181 c 1.816737,0.17722 3.590955,1.48012 4.050636,3.22692 l 0.44639,0.37762 v -6.26502 c 1.752461,0 2.820642,0.78254 2.454233,1.99094 -0.472443,-0.94098 -1.905016,-0.63534 -1.905016,0.49767 0,1.09414 1.483391,1.40738 2.145387,0.51513 1.236739,-1.66689 -0.192429,-4.49702 -2.694604,-4.49702 v -0.6008 h 6.453587 c -3.127669,3.03367 -1.714009,8.32448 1.390153,8.32448 1.921714,0 1.875293,-2.48861 0.394778,-2.48861 -1.002947,0 -1.28359,1.05055 -0.686464,1.64768 -3.429869,-1.18311 -0.681768,-7.48355 2.025335,-7.48355 z m -65.119216,2.6e-4 c -1.047946,0 -1.870895,0.76598 -1.870895,1.78497 0,1.28451 1.068445,2.0253 2.059687,2.0253 1.116189,0 1.819316,-0.91827 1.819316,-1.73339 0,-1.09228 -0.971569,-2.07688 -2.008108,-2.07688 z m 174.143512,0.18879 c -0.69718,0 -1.04693,0.507 -1.04693,1.06409 0,0.35982 0.16764,0.64579 0.44613,0.94402 1.07357,1.20672 4.80045,2.27017 3.86184,4.4111 -0.43481,-0.26319 -0.91536,-0.39481 -1.44173,-0.39481 -1.09532,0 -2.14539,0.79431 -2.14539,1.63052 0,0.67033 0.74648,1.28729 1.63053,1.28729 2.10541,0 3.07222,-2.00282 3.07222,-3.51835 0,-1.59266 -0.85972,-2.88276 -3.50139,-4.06782 0.401,-0.74473 -0.30649,-1.35604 -0.87528,-1.35604 z m 31.20385,0.25724 c -1.04795,0 -1.8709,0.76598 -1.8709,1.78493 0,1.28455 1.06845,2.02533 2.05969,2.02533 1.11619,0 1.81931,-0.91827 1.81931,-1.73338 0,-1.09232 -0.97156,-2.07688 -2.0081,-2.07688 z m -53.23426,2.3e-4 c -1.04795,0 -1.87086,0.76598 -1.87086,1.78496 0,1.28455 1.06844,2.02534 2.05969,2.02534 1.11618,0 1.81931,-0.91827 1.81931,-1.73339 0,-1.09231 -0.97157,-2.07691 -2.00814,-2.07691 z m -151.512571,0.54925 c 0.343265,0 0.515129,0.15441 0.515129,0.46328 0,0.48743 -1.004534,1.35604 -1.596403,1.35604 -0.309143,0 -0.463318,-0.13722 -0.463318,-0.41197 0,-0.51093 0.983737,-1.40735 1.544592,-1.40735 z m 29.521755,0.0684 h 3.3813673 v 3.00481 c -0.4419921,-1.0046 -0.9336125,-1.51153 -1.4760844,-1.51153 -0.3432978,0 -0.7209169,0.24037 -1.1328549,0.72088 0.169616,-0.81614 0.07142,-1.80404 -0.772428,-2.17977 z m 86.658994,0 h 1.390417 c 0.96122,0 1.441434,0.286 1.441434,0.85813 0,0.58357 -0.3716,0.87502 -1.115396,0.87502 -1.00579,0 -1.493839,-0.92756 -1.716455,-1.73315 z m -109.407107,0.0364 c 0.419443,0.003 0.843349,0.17292 1.259155,0.56436 -0.972594,0.8124 -1.664943,1.47612 -2.07688,1.99095 0.09919,-0.28501 -0.14581,-1.42454 -1.184432,-1.42454 0.616369,-0.67555 1.303097,-1.13553 2.002157,-1.13077 z m 63.128566,2.7e-4 c 0.419442,0.003 0.843382,0.17292 1.259155,0.56436 -0.972561,0.8124 -1.664976,1.47605 -2.076881,1.99094 0.09919,-0.285 -0.145809,-1.42453 -1.184431,-1.42453 0.616335,-0.67562 1.303063,-1.13554 2.002157,-1.13077 z m 61.91368,0.0132 c 0.0995,-0.007 0.19441,-9.9e-4 0.28468,0.01 0.54161,0.0694 0.91139,0.40437 1.05522,0.5396 -0.97263,0.81243 -1.66494,1.47654 -2.07688,1.99144 0.0982,-0.21756 -0.1111,-1.42477 -1.18414,-1.42477 0.51361,-0.53847 1.05797,-0.93553 1.60914,-1.07033 0.10844,-0.0265 0.21259,-0.0413 0.31211,-0.0466 z m 35.668043,0.15573 c -1.81118,0 -3.19231,1.2738 -3.19231,3.03813 0,1.8583 1.78219,3.26105 3.69025,3.26105 1.61138,0 2.98629,-1.04781 2.98629,-2.81443 0,-1.69992 -1.5681,-3.48475 -3.48423,-3.48475 z m -29.796533,0.1716 c 1.15576,4.65725 2.941222,6.98561 5.355643,6.98561 4.04911,0 3.62821,-6.7627 -0.20632,-6.7627 -1.2897,0 -2.042521,0.88075 -2.042521,1.94017 0,1.06642 0.789151,1.69903 1.556321,1.69903 1.50846,0 1.77835,-1.80467 0.89768,-2.35191 2.08818,-0.96535 2.81039,3.69022 -0.41148,3.69022 -2.156251,0 -3.409393,-1.63774 -4.582683,-4.82227 z m 67.659963,6.6e-4 c 0.34326,0 0.51513,0.15441 0.51513,0.46328 0,0.48743 -1.00454,1.35604 -1.59644,1.35604 -0.30881,0 -0.46328,-0.13755 -0.46328,-0.41197 0,-0.51093 0.98373,-1.40735 1.54459,-1.40735 z m -53.23423,2.6e-4 c 0.34327,0 0.5151,0.15441 0.5151,0.46329 0,0.48742 -1.00453,1.35603 -1.5964,1.35603 -0.30882,0 -0.46329,-0.13721 -0.46329,-0.412 0,-0.5109 0.98374,-1.40732 1.54459,-1.40732 z m 16.05075,0.77762 c 0.44762,-0.007 0.84639,0.14747 1.12218,0.42318 0.87826,0.74324 0.42549,2.28389 -0.36043,3.14126 -0.90938,0.9921 -2.12823,1.20791 -2.93524,0.46253 -0.96466,-0.96466 -0.29559,-2.39039 0.36043,-3.10612 0.51665,-0.5636 1.09274,-0.84526 1.61852,-0.90755 0.0658,-0.007 0.1306,-0.0132 0.19441,-0.0132 z m -150.982891,1.10994 v 3.69021 c -0.945615,-1.56033 -1.486963,-2.15725 -2.506044,-2.35137 0.761087,-0.54098 2.064845,-1.24692 2.506044,-1.33884 z m -22.810603,2.3e-4 v 3.69025 c -0.945648,-1.56033 -1.486897,-2.15726 -2.506077,-2.35137 0.761186,-0.54105 2.064878,-1.24696 2.506077,-1.33888 z m 60.416503,0 v 3.72305 c -0.775371,-1.24577 -1.361553,-1.97984 -2.62613,-2.40137 0.566938,-0.47241 2.06339,-1.19656 2.62613,-1.32168 z m 34.310466,0 v 3.69025 c -0.945647,-1.56033 -1.486929,-2.15726 -2.506077,-2.35137 0.761154,-0.54105 2.064846,-1.24696 2.506077,-1.33888 z m -90.470315,0.65212 -0.600796,1.95686 c 1.431184,1.07337 3.034298,2.42169 4.187882,3.77587 l 0.205985,-0.75523 c -0.902202,-1.53907 -2.151967,-3.33627 -3.793071,-4.9775 z m 206.11979,1.25264 c -1.04795,0 -1.8709,0.76598 -1.8709,1.78496 0,1.28455 1.06845,2.02533 2.05969,2.02533 1.11619,0 1.81931,-0.91827 1.81931,-1.73338 0,-1.09232 -0.97156,-2.07691 -2.0081,-2.07691 z m -53.23426,2.6e-4 c -1.04795,0 -1.87086,0.76598 -1.87086,1.78496 0,1.28452 1.06844,2.02534 2.05969,2.02534 1.11618,0 1.81931,-0.91827 1.81931,-1.73339 0,-1.09231 -0.97157,-2.07691 -2.00814,-2.07691 z m 53.83479,0.99534 c 0.34326,0 0.51513,0.15441 0.51513,0.46332 0,0.48739 -1.00454,1.35603 -1.59644,1.35603 -0.30881,0 -0.46328,-0.13754 -0.46328,-0.412 0,-0.51093 0.98373,-1.40735 1.54459,-1.40735 z m -53.23423,2.7e-4 c 0.34327,0 0.5151,0.1544 0.5151,0.46332 0,0.48738 -1.00453,1.35603 -1.5964,1.35603 -0.30882,0 -0.46329,-0.13722 -0.46329,-0.41201 0,-0.51093 0.98374,-1.40734 1.54459,-1.40734 z m -137.317867,1.26983 c -0.50716,0 -0.918271,0.41111 -0.918271,0.91827 0,0.50713 0.411111,0.91824 0.918271,0.91824 0.507127,0 0.918238,-0.41111 0.918238,-0.91824 0,-0.50716 -0.411111,-0.91827 -0.918238,-0.91827 z m -22.810637,2.7e-4 c -0.507061,0 -0.918238,0.41114 -0.918238,0.91827 0,0.50713 0.411177,0.91824 0.918238,0.91824 0.507161,0 0.918272,-0.41111 0.918272,-0.91824 0,-0.50716 -0.411111,-0.91827 -0.918272,-0.91827 z m 94.72697,0 c -0.50716,0 -0.918271,0.41114 -0.918271,0.91827 0,0.50713 0.411111,0.91824 0.918271,0.91824 0.507127,0 0.918238,-0.41111 0.918238,-0.91824 0,-0.50713 -0.411111,-0.91827 -0.918238,-0.91827 z m -77.80404,2.44878 c 0.36998,-0.0437 0.848705,0.0598 1.266198,0.31939 -0.503259,0.98268 -1.842957,0.93255 -1.879756,0.24467 -0.01653,-0.32965 0.243677,-0.52065 0.613558,-0.56433 z" /></g><metadata
     id="metadata78"><rdf:RDF><cc:Work
         rdf:about=""><dc:title>Rangpur City Corporation (RCC) - রংপুর সিটি কর্পোরেশন</dc:title></cc:Work></rdf:RDF></metadata></svg>
